<mxfile host="app.diagrams.net" agent="Mozilla/5.0 (Windows NT 10.0; Win64; x64) AppleWebKit/537.36 (KHTML, like Gecko) Chrome/131.0.0.0 Safari/537.36 Edg/131.0.0.0" version="24.9.3">
  <diagram id="C5RBs43oDa-KdzZeNtuy" name="Page-1">
    <mxGraphModel dx="2509" dy="1060" grid="1" gridSize="10" guides="1" tooltips="1" connect="1" arrows="1" fold="1" page="1" pageScale="1" pageWidth="827" pageHeight="1169" math="0" shadow="0">
      <root>
        <mxCell id="WIyWlLk6GJQsqaUBKTNV-0" />
        <mxCell id="WIyWlLk6GJQsqaUBKTNV-1" parent="WIyWlLk6GJQsqaUBKTNV-0" />
        <mxCell id="mvioNwK95yMqdUQ73LqQ-36" value="hw01-1-helloworld" style="swimlane;fontFamily=Sarabun;fontSource=https%3A%2F%2Ffonts.googleapis.com%2Fcss%3Ffamily%3DSarabun;" parent="WIyWlLk6GJQsqaUBKTNV-1" vertex="1">
          <mxGeometry x="-730" y="110" width="940" height="10050" as="geometry" />
        </mxCell>
        <mxCell id="JBCHaNcfTczLMrVH9G6V-0" style="edgeStyle=orthogonalEdgeStyle;rounded=0;orthogonalLoop=1;jettySize=auto;html=1;exitX=0.5;exitY=1;exitDx=0;exitDy=0;" parent="mvioNwK95yMqdUQ73LqQ-36" source="mvioNwK95yMqdUQ73LqQ-35" edge="1">
          <mxGeometry relative="1" as="geometry">
            <mxPoint x="320.2758620689656" y="130" as="targetPoint" />
          </mxGeometry>
        </mxCell>
        <mxCell id="mvioNwK95yMqdUQ73LqQ-35" value="&lt;font data-font-src=&quot;https://fonts.googleapis.com/css?family=Sarabun&quot; face=&quot;Sarabun&quot;&gt;Start&lt;/font&gt;" style="ellipse;whiteSpace=wrap;html=1;" parent="mvioNwK95yMqdUQ73LqQ-36" vertex="1">
          <mxGeometry x="255" y="40" width="130" height="30" as="geometry" />
        </mxCell>
        <mxCell id="iYESXNnwb6eKK7Hg1Qux-1" style="edgeStyle=orthogonalEdgeStyle;rounded=0;orthogonalLoop=1;jettySize=auto;html=1;" edge="1" parent="mvioNwK95yMqdUQ73LqQ-36" source="iYESXNnwb6eKK7Hg1Qux-0">
          <mxGeometry relative="1" as="geometry">
            <mxPoint x="327" y="320" as="targetPoint" />
          </mxGeometry>
        </mxCell>
        <mxCell id="iYESXNnwb6eKK7Hg1Qux-0" value="Declare&lt;div&gt;rows1, cols1, rows2, cols2, rows3, cols3, rows4, cols4, i, j, k is int&lt;/div&gt;&lt;div&gt;&lt;br&gt;&lt;/div&gt;&lt;div&gt;Matrix1[ 5 ][ 5 ], Matrix2[ 5 ][ 5 ] ,Matrix3[ 5 ][ 5 ] , Matrix4[ 5 ][ 5 ]&amp;nbsp;&lt;/div&gt;&lt;div&gt;&lt;br&gt;&lt;/div&gt;" style="rounded=0;whiteSpace=wrap;html=1;" vertex="1" parent="mvioNwK95yMqdUQ73LqQ-36">
          <mxGeometry x="152" y="130" width="350" height="140" as="geometry" />
        </mxCell>
        <mxCell id="iYESXNnwb6eKK7Hg1Qux-4" style="edgeStyle=orthogonalEdgeStyle;rounded=0;orthogonalLoop=1;jettySize=auto;html=1;" edge="1" parent="mvioNwK95yMqdUQ73LqQ-36" source="iYESXNnwb6eKK7Hg1Qux-2">
          <mxGeometry relative="1" as="geometry">
            <mxPoint x="326" y="410" as="targetPoint" />
          </mxGeometry>
        </mxCell>
        <mxCell id="iYESXNnwb6eKK7Hg1Qux-2" value="Display &quot;Enter Matrix1 : &quot;" style="shape=parallelogram;perimeter=parallelogramPerimeter;whiteSpace=wrap;html=1;fixedSize=1;" vertex="1" parent="mvioNwK95yMqdUQ73LqQ-36">
          <mxGeometry x="246" y="320" width="160" height="60" as="geometry" />
        </mxCell>
        <mxCell id="iYESXNnwb6eKK7Hg1Qux-3" value="Display &quot;Enter number rows and columns : &quot;" style="shape=parallelogram;perimeter=parallelogramPerimeter;whiteSpace=wrap;html=1;fixedSize=1;" vertex="1" parent="mvioNwK95yMqdUQ73LqQ-36">
          <mxGeometry x="229.5" y="410" width="195" height="60" as="geometry" />
        </mxCell>
        <mxCell id="iYESXNnwb6eKK7Hg1Qux-32" style="edgeStyle=orthogonalEdgeStyle;rounded=0;orthogonalLoop=1;jettySize=auto;html=1;entryX=0.5;entryY=0;entryDx=0;entryDy=0;" edge="1" parent="mvioNwK95yMqdUQ73LqQ-36" source="iYESXNnwb6eKK7Hg1Qux-5" target="iYESXNnwb6eKK7Hg1Qux-6">
          <mxGeometry relative="1" as="geometry" />
        </mxCell>
        <mxCell id="iYESXNnwb6eKK7Hg1Qux-5" value="Read rows1 cols1" style="shape=parallelogram;perimeter=parallelogramPerimeter;whiteSpace=wrap;html=1;fixedSize=1;" vertex="1" parent="mvioNwK95yMqdUQ73LqQ-36">
          <mxGeometry x="229.5" y="490" width="195" height="60" as="geometry" />
        </mxCell>
        <mxCell id="iYESXNnwb6eKK7Hg1Qux-31" style="edgeStyle=orthogonalEdgeStyle;rounded=0;orthogonalLoop=1;jettySize=auto;html=1;entryX=0.5;entryY=0;entryDx=0;entryDy=0;" edge="1" parent="mvioNwK95yMqdUQ73LqQ-36" source="iYESXNnwb6eKK7Hg1Qux-6" target="iYESXNnwb6eKK7Hg1Qux-29">
          <mxGeometry relative="1" as="geometry" />
        </mxCell>
        <mxCell id="iYESXNnwb6eKK7Hg1Qux-6" value="i = 0" style="rounded=0;whiteSpace=wrap;html=1;" vertex="1" parent="mvioNwK95yMqdUQ73LqQ-36">
          <mxGeometry x="297" y="590" width="60" height="30" as="geometry" />
        </mxCell>
        <mxCell id="iYESXNnwb6eKK7Hg1Qux-28" style="edgeStyle=orthogonalEdgeStyle;rounded=0;orthogonalLoop=1;jettySize=auto;html=1;entryX=0.5;entryY=0;entryDx=0;entryDy=0;" edge="1" parent="mvioNwK95yMqdUQ73LqQ-36" source="iYESXNnwb6eKK7Hg1Qux-7" target="iYESXNnwb6eKK7Hg1Qux-8">
          <mxGeometry relative="1" as="geometry" />
        </mxCell>
        <mxCell id="iYESXNnwb6eKK7Hg1Qux-7" value="i &amp;lt; rows ?" style="rhombus;whiteSpace=wrap;html=1;" vertex="1" parent="mvioNwK95yMqdUQ73LqQ-36">
          <mxGeometry x="287" y="700" width="80" height="80" as="geometry" />
        </mxCell>
        <mxCell id="iYESXNnwb6eKK7Hg1Qux-21" style="edgeStyle=orthogonalEdgeStyle;rounded=0;orthogonalLoop=1;jettySize=auto;html=1;entryX=0.5;entryY=0;entryDx=0;entryDy=0;" edge="1" parent="mvioNwK95yMqdUQ73LqQ-36" source="iYESXNnwb6eKK7Hg1Qux-8" target="iYESXNnwb6eKK7Hg1Qux-18">
          <mxGeometry relative="1" as="geometry" />
        </mxCell>
        <mxCell id="iYESXNnwb6eKK7Hg1Qux-8" value="j = 0" style="rounded=0;whiteSpace=wrap;html=1;" vertex="1" parent="mvioNwK95yMqdUQ73LqQ-36">
          <mxGeometry x="267" y="810" width="120" height="60" as="geometry" />
        </mxCell>
        <mxCell id="iYESXNnwb6eKK7Hg1Qux-23" style="edgeStyle=orthogonalEdgeStyle;rounded=0;orthogonalLoop=1;jettySize=auto;html=1;" edge="1" parent="mvioNwK95yMqdUQ73LqQ-36" source="iYESXNnwb6eKK7Hg1Qux-9">
          <mxGeometry relative="1" as="geometry">
            <mxPoint x="327" y="1050" as="targetPoint" />
          </mxGeometry>
        </mxCell>
        <mxCell id="iYESXNnwb6eKK7Hg1Qux-9" value="i &amp;lt; cols ?" style="rhombus;whiteSpace=wrap;html=1;" vertex="1" parent="mvioNwK95yMqdUQ73LqQ-36">
          <mxGeometry x="292" y="950" width="70" height="70" as="geometry" />
        </mxCell>
        <mxCell id="iYESXNnwb6eKK7Hg1Qux-25" style="edgeStyle=orthogonalEdgeStyle;rounded=0;orthogonalLoop=1;jettySize=auto;html=1;entryX=0.5;entryY=0;entryDx=0;entryDy=0;" edge="1" parent="mvioNwK95yMqdUQ73LqQ-36" source="iYESXNnwb6eKK7Hg1Qux-10" target="iYESXNnwb6eKK7Hg1Qux-11">
          <mxGeometry relative="1" as="geometry" />
        </mxCell>
        <mxCell id="iYESXNnwb6eKK7Hg1Qux-10" value="Display &quot;Enter&quot; + i + j + &quot; value : &quot;" style="shape=parallelogram;perimeter=parallelogramPerimeter;whiteSpace=wrap;html=1;fixedSize=1;" vertex="1" parent="mvioNwK95yMqdUQ73LqQ-36">
          <mxGeometry x="220" y="1049" width="228" height="60" as="geometry" />
        </mxCell>
        <mxCell id="iYESXNnwb6eKK7Hg1Qux-13" style="edgeStyle=orthogonalEdgeStyle;rounded=0;orthogonalLoop=1;jettySize=auto;html=1;" edge="1" parent="mvioNwK95yMqdUQ73LqQ-36" source="iYESXNnwb6eKK7Hg1Qux-11" target="iYESXNnwb6eKK7Hg1Qux-12">
          <mxGeometry relative="1" as="geometry">
            <Array as="points">
              <mxPoint x="334" y="1270" />
              <mxPoint x="130" y="1270" />
            </Array>
          </mxGeometry>
        </mxCell>
        <mxCell id="iYESXNnwb6eKK7Hg1Qux-11" value="Read Matrix1[ i ][ j ]" style="shape=parallelogram;perimeter=parallelogramPerimeter;whiteSpace=wrap;html=1;fixedSize=1;" vertex="1" parent="mvioNwK95yMqdUQ73LqQ-36">
          <mxGeometry x="220" y="1150" width="228" height="60" as="geometry" />
        </mxCell>
        <mxCell id="iYESXNnwb6eKK7Hg1Qux-24" style="edgeStyle=orthogonalEdgeStyle;rounded=0;orthogonalLoop=1;jettySize=auto;html=1;entryX=0;entryY=0.5;entryDx=0;entryDy=0;" edge="1" parent="mvioNwK95yMqdUQ73LqQ-36" source="iYESXNnwb6eKK7Hg1Qux-12" target="iYESXNnwb6eKK7Hg1Qux-18">
          <mxGeometry relative="1" as="geometry">
            <Array as="points">
              <mxPoint x="130" y="910" />
            </Array>
          </mxGeometry>
        </mxCell>
        <mxCell id="iYESXNnwb6eKK7Hg1Qux-12" value="j++" style="rounded=0;whiteSpace=wrap;html=1;" vertex="1" parent="mvioNwK95yMqdUQ73LqQ-36">
          <mxGeometry x="70" y="1080" width="120" height="60" as="geometry" />
        </mxCell>
        <mxCell id="iYESXNnwb6eKK7Hg1Qux-22" style="edgeStyle=orthogonalEdgeStyle;rounded=0;orthogonalLoop=1;jettySize=auto;html=1;entryX=0.5;entryY=0;entryDx=0;entryDy=0;" edge="1" parent="mvioNwK95yMqdUQ73LqQ-36" source="iYESXNnwb6eKK7Hg1Qux-18" target="iYESXNnwb6eKK7Hg1Qux-9">
          <mxGeometry relative="1" as="geometry" />
        </mxCell>
        <mxCell id="iYESXNnwb6eKK7Hg1Qux-18" value="" style="ellipse;whiteSpace=wrap;html=1;aspect=fixed;" vertex="1" parent="mvioNwK95yMqdUQ73LqQ-36">
          <mxGeometry x="317" y="900" width="20" height="20" as="geometry" />
        </mxCell>
        <mxCell id="iYESXNnwb6eKK7Hg1Qux-30" style="edgeStyle=orthogonalEdgeStyle;rounded=0;orthogonalLoop=1;jettySize=auto;html=1;entryX=1;entryY=0.5;entryDx=0;entryDy=0;" edge="1" parent="mvioNwK95yMqdUQ73LqQ-36" source="iYESXNnwb6eKK7Hg1Qux-27" target="iYESXNnwb6eKK7Hg1Qux-29">
          <mxGeometry relative="1" as="geometry">
            <Array as="points">
              <mxPoint x="510" y="660" />
            </Array>
          </mxGeometry>
        </mxCell>
        <mxCell id="iYESXNnwb6eKK7Hg1Qux-27" value="i++" style="rounded=0;whiteSpace=wrap;html=1;" vertex="1" parent="mvioNwK95yMqdUQ73LqQ-36">
          <mxGeometry x="450" y="740" width="120" height="60" as="geometry" />
        </mxCell>
        <mxCell id="iYESXNnwb6eKK7Hg1Qux-26" style="edgeStyle=orthogonalEdgeStyle;rounded=0;orthogonalLoop=1;jettySize=auto;html=1;" edge="1" parent="mvioNwK95yMqdUQ73LqQ-36" source="iYESXNnwb6eKK7Hg1Qux-9" target="iYESXNnwb6eKK7Hg1Qux-27">
          <mxGeometry relative="1" as="geometry">
            <mxPoint x="510" y="850" as="targetPoint" />
          </mxGeometry>
        </mxCell>
        <mxCell id="iYESXNnwb6eKK7Hg1Qux-33" style="edgeStyle=orthogonalEdgeStyle;rounded=0;orthogonalLoop=1;jettySize=auto;html=1;entryX=0.5;entryY=0;entryDx=0;entryDy=0;" edge="1" parent="mvioNwK95yMqdUQ73LqQ-36" source="iYESXNnwb6eKK7Hg1Qux-29" target="iYESXNnwb6eKK7Hg1Qux-7">
          <mxGeometry relative="1" as="geometry" />
        </mxCell>
        <mxCell id="iYESXNnwb6eKK7Hg1Qux-29" value="" style="ellipse;whiteSpace=wrap;html=1;aspect=fixed;" vertex="1" parent="mvioNwK95yMqdUQ73LqQ-36">
          <mxGeometry x="316" y="650" width="20" height="20" as="geometry" />
        </mxCell>
        <mxCell id="iYESXNnwb6eKK7Hg1Qux-76" style="edgeStyle=orthogonalEdgeStyle;rounded=0;orthogonalLoop=1;jettySize=auto;html=1;" edge="1" parent="mvioNwK95yMqdUQ73LqQ-36" source="iYESXNnwb6eKK7Hg1Qux-35">
          <mxGeometry relative="1" as="geometry">
            <mxPoint x="334" y="1449.9999999999998" as="targetPoint" />
          </mxGeometry>
        </mxCell>
        <mxCell id="iYESXNnwb6eKK7Hg1Qux-35" value="Display&amp;nbsp;&quot;Enter Matrix2 : &quot;" style="shape=parallelogram;perimeter=parallelogramPerimeter;whiteSpace=wrap;html=1;fixedSize=1;" vertex="1" parent="mvioNwK95yMqdUQ73LqQ-36">
          <mxGeometry x="204" y="1360" width="260" height="60" as="geometry" />
        </mxCell>
        <mxCell id="iYESXNnwb6eKK7Hg1Qux-34" style="edgeStyle=orthogonalEdgeStyle;rounded=0;orthogonalLoop=1;jettySize=auto;html=1;" edge="1" parent="mvioNwK95yMqdUQ73LqQ-36" source="iYESXNnwb6eKK7Hg1Qux-7" target="iYESXNnwb6eKK7Hg1Qux-35">
          <mxGeometry relative="1" as="geometry">
            <mxPoint x="30" y="1331.2500000000002" as="targetPoint" />
            <Array as="points">
              <mxPoint x="60" y="740" />
              <mxPoint x="60" y="1320" />
              <mxPoint x="327" y="1320" />
            </Array>
          </mxGeometry>
        </mxCell>
        <mxCell id="iYESXNnwb6eKK7Hg1Qux-37" value="Yes" style="text;html=1;align=center;verticalAlign=middle;resizable=0;points=[];autosize=1;strokeColor=none;fillColor=none;" vertex="1" parent="mvioNwK95yMqdUQ73LqQ-36">
          <mxGeometry x="277" y="1010" width="40" height="30" as="geometry" />
        </mxCell>
        <mxCell id="iYESXNnwb6eKK7Hg1Qux-38" value="No" style="text;html=1;align=center;verticalAlign=middle;resizable=0;points=[];autosize=1;strokeColor=none;fillColor=none;" vertex="1" parent="mvioNwK95yMqdUQ73LqQ-36">
          <mxGeometry x="357" y="940" width="40" height="30" as="geometry" />
        </mxCell>
        <mxCell id="iYESXNnwb6eKK7Hg1Qux-74" value="No" style="text;html=1;align=center;verticalAlign=middle;resizable=0;points=[];autosize=1;strokeColor=none;fillColor=none;" vertex="1" parent="mvioNwK95yMqdUQ73LqQ-36">
          <mxGeometry x="257" y="680" width="40" height="30" as="geometry" />
        </mxCell>
        <mxCell id="iYESXNnwb6eKK7Hg1Qux-106" style="edgeStyle=orthogonalEdgeStyle;rounded=0;orthogonalLoop=1;jettySize=auto;html=1;" edge="1" parent="mvioNwK95yMqdUQ73LqQ-36" source="iYESXNnwb6eKK7Hg1Qux-75">
          <mxGeometry relative="1" as="geometry">
            <mxPoint x="334" y="1560" as="targetPoint" />
          </mxGeometry>
        </mxCell>
        <mxCell id="iYESXNnwb6eKK7Hg1Qux-75" value="Display &quot;Enter number rows and columns :&quot;" style="shape=parallelogram;perimeter=parallelogramPerimeter;whiteSpace=wrap;html=1;fixedSize=1;" vertex="1" parent="mvioNwK95yMqdUQ73LqQ-36">
          <mxGeometry x="204" y="1450" width="260" height="60" as="geometry" />
        </mxCell>
        <mxCell id="iYESXNnwb6eKK7Hg1Qux-130" style="edgeStyle=orthogonalEdgeStyle;rounded=0;orthogonalLoop=1;jettySize=auto;html=1;entryX=0.5;entryY=0;entryDx=0;entryDy=0;" edge="1" parent="mvioNwK95yMqdUQ73LqQ-36" source="iYESXNnwb6eKK7Hg1Qux-77" target="iYESXNnwb6eKK7Hg1Qux-107">
          <mxGeometry relative="1" as="geometry" />
        </mxCell>
        <mxCell id="iYESXNnwb6eKK7Hg1Qux-77" value="Read rows2. cols2" style="shape=parallelogram;perimeter=parallelogramPerimeter;whiteSpace=wrap;html=1;fixedSize=1;" vertex="1" parent="mvioNwK95yMqdUQ73LqQ-36">
          <mxGeometry x="204" y="1560" width="260" height="60" as="geometry" />
        </mxCell>
        <mxCell id="iYESXNnwb6eKK7Hg1Qux-129" style="edgeStyle=orthogonalEdgeStyle;rounded=0;orthogonalLoop=1;jettySize=auto;html=1;entryX=0.5;entryY=0;entryDx=0;entryDy=0;" edge="1" parent="mvioNwK95yMqdUQ73LqQ-36" source="iYESXNnwb6eKK7Hg1Qux-107" target="iYESXNnwb6eKK7Hg1Qux-125">
          <mxGeometry relative="1" as="geometry" />
        </mxCell>
        <mxCell id="iYESXNnwb6eKK7Hg1Qux-107" value="i = 0" style="rounded=0;whiteSpace=wrap;html=1;" vertex="1" parent="mvioNwK95yMqdUQ73LqQ-36">
          <mxGeometry x="274" y="1720" width="120" height="60" as="geometry" />
        </mxCell>
        <mxCell id="iYESXNnwb6eKK7Hg1Qux-127" style="edgeStyle=orthogonalEdgeStyle;rounded=0;orthogonalLoop=1;jettySize=auto;html=1;entryX=0.5;entryY=0;entryDx=0;entryDy=0;" edge="1" parent="mvioNwK95yMqdUQ73LqQ-36" source="iYESXNnwb6eKK7Hg1Qux-108" target="iYESXNnwb6eKK7Hg1Qux-111">
          <mxGeometry relative="1" as="geometry" />
        </mxCell>
        <mxCell id="iYESXNnwb6eKK7Hg1Qux-132" style="edgeStyle=orthogonalEdgeStyle;rounded=0;orthogonalLoop=1;jettySize=auto;html=1;entryX=0.5;entryY=0;entryDx=0;entryDy=0;" edge="1" parent="mvioNwK95yMqdUQ73LqQ-36" source="iYESXNnwb6eKK7Hg1Qux-108" target="iYESXNnwb6eKK7Hg1Qux-131">
          <mxGeometry relative="1" as="geometry">
            <Array as="points">
              <mxPoint x="60" y="1910" />
              <mxPoint x="60" y="2610" />
            </Array>
          </mxGeometry>
        </mxCell>
        <mxCell id="iYESXNnwb6eKK7Hg1Qux-108" value="i &amp;lt; rows2 ?" style="rhombus;whiteSpace=wrap;html=1;" vertex="1" parent="mvioNwK95yMqdUQ73LqQ-36">
          <mxGeometry x="292" y="1870" width="80" height="80" as="geometry" />
        </mxCell>
        <mxCell id="iYESXNnwb6eKK7Hg1Qux-112" style="edgeStyle=orthogonalEdgeStyle;rounded=0;orthogonalLoop=1;jettySize=auto;html=1;" edge="1" parent="mvioNwK95yMqdUQ73LqQ-36" source="iYESXNnwb6eKK7Hg1Qux-110">
          <mxGeometry relative="1" as="geometry">
            <mxPoint x="332" y="2310" as="targetPoint" />
          </mxGeometry>
        </mxCell>
        <mxCell id="iYESXNnwb6eKK7Hg1Qux-124" style="edgeStyle=orthogonalEdgeStyle;rounded=0;orthogonalLoop=1;jettySize=auto;html=1;" edge="1" parent="mvioNwK95yMqdUQ73LqQ-36" source="iYESXNnwb6eKK7Hg1Qux-110" target="iYESXNnwb6eKK7Hg1Qux-123">
          <mxGeometry relative="1" as="geometry" />
        </mxCell>
        <mxCell id="iYESXNnwb6eKK7Hg1Qux-110" value="j &amp;lt; cols2 ?" style="rhombus;whiteSpace=wrap;html=1;" vertex="1" parent="mvioNwK95yMqdUQ73LqQ-36">
          <mxGeometry x="292" y="2150" width="80" height="80" as="geometry" />
        </mxCell>
        <mxCell id="iYESXNnwb6eKK7Hg1Qux-121" style="edgeStyle=orthogonalEdgeStyle;rounded=0;orthogonalLoop=1;jettySize=auto;html=1;entryX=0.5;entryY=0;entryDx=0;entryDy=0;" edge="1" parent="mvioNwK95yMqdUQ73LqQ-36" source="iYESXNnwb6eKK7Hg1Qux-111" target="iYESXNnwb6eKK7Hg1Qux-118">
          <mxGeometry relative="1" as="geometry" />
        </mxCell>
        <mxCell id="iYESXNnwb6eKK7Hg1Qux-111" value="j = 0" style="rounded=0;whiteSpace=wrap;html=1;" vertex="1" parent="mvioNwK95yMqdUQ73LqQ-36">
          <mxGeometry x="274" y="2000" width="120" height="60" as="geometry" />
        </mxCell>
        <mxCell id="iYESXNnwb6eKK7Hg1Qux-115" style="edgeStyle=orthogonalEdgeStyle;rounded=0;orthogonalLoop=1;jettySize=auto;html=1;" edge="1" parent="mvioNwK95yMqdUQ73LqQ-36" source="iYESXNnwb6eKK7Hg1Qux-113">
          <mxGeometry relative="1" as="geometry">
            <mxPoint x="334" y="2410" as="targetPoint" />
          </mxGeometry>
        </mxCell>
        <mxCell id="iYESXNnwb6eKK7Hg1Qux-113" value="Display &quot;Enter&quot; + i + j + &quot; value : &quot;" style="shape=parallelogram;perimeter=parallelogramPerimeter;whiteSpace=wrap;html=1;fixedSize=1;" vertex="1" parent="mvioNwK95yMqdUQ73LqQ-36">
          <mxGeometry x="235" y="2310" width="198" height="60" as="geometry" />
        </mxCell>
        <mxCell id="iYESXNnwb6eKK7Hg1Qux-117" style="edgeStyle=orthogonalEdgeStyle;rounded=0;orthogonalLoop=1;jettySize=auto;html=1;" edge="1" parent="mvioNwK95yMqdUQ73LqQ-36" source="iYESXNnwb6eKK7Hg1Qux-114">
          <mxGeometry relative="1" as="geometry">
            <mxPoint x="140" y="2350" as="targetPoint" />
          </mxGeometry>
        </mxCell>
        <mxCell id="iYESXNnwb6eKK7Hg1Qux-114" value="Read Matrix1[ i ][ j ]" style="shape=parallelogram;perimeter=parallelogramPerimeter;whiteSpace=wrap;html=1;fixedSize=1;" vertex="1" parent="mvioNwK95yMqdUQ73LqQ-36">
          <mxGeometry x="222" y="2410" width="228" height="60" as="geometry" />
        </mxCell>
        <mxCell id="iYESXNnwb6eKK7Hg1Qux-120" style="edgeStyle=orthogonalEdgeStyle;rounded=0;orthogonalLoop=1;jettySize=auto;html=1;entryX=0;entryY=0.5;entryDx=0;entryDy=0;" edge="1" parent="mvioNwK95yMqdUQ73LqQ-36" source="iYESXNnwb6eKK7Hg1Qux-116" target="iYESXNnwb6eKK7Hg1Qux-118">
          <mxGeometry relative="1" as="geometry">
            <Array as="points">
              <mxPoint x="140" y="2110" />
            </Array>
          </mxGeometry>
        </mxCell>
        <mxCell id="iYESXNnwb6eKK7Hg1Qux-116" value="j++" style="rounded=0;whiteSpace=wrap;html=1;" vertex="1" parent="mvioNwK95yMqdUQ73LqQ-36">
          <mxGeometry x="80" y="2290" width="120" height="60" as="geometry" />
        </mxCell>
        <mxCell id="iYESXNnwb6eKK7Hg1Qux-122" style="edgeStyle=orthogonalEdgeStyle;rounded=0;orthogonalLoop=1;jettySize=auto;html=1;entryX=0.5;entryY=0;entryDx=0;entryDy=0;" edge="1" parent="mvioNwK95yMqdUQ73LqQ-36" source="iYESXNnwb6eKK7Hg1Qux-118" target="iYESXNnwb6eKK7Hg1Qux-110">
          <mxGeometry relative="1" as="geometry" />
        </mxCell>
        <mxCell id="iYESXNnwb6eKK7Hg1Qux-118" value="" style="ellipse;whiteSpace=wrap;html=1;aspect=fixed;" vertex="1" parent="mvioNwK95yMqdUQ73LqQ-36">
          <mxGeometry x="324" y="2100" width="20" height="20" as="geometry" />
        </mxCell>
        <mxCell id="iYESXNnwb6eKK7Hg1Qux-126" style="edgeStyle=orthogonalEdgeStyle;rounded=0;orthogonalLoop=1;jettySize=auto;html=1;entryX=1;entryY=0.5;entryDx=0;entryDy=0;" edge="1" parent="mvioNwK95yMqdUQ73LqQ-36" source="iYESXNnwb6eKK7Hg1Qux-123" target="iYESXNnwb6eKK7Hg1Qux-125">
          <mxGeometry relative="1" as="geometry">
            <Array as="points">
              <mxPoint x="530" y="1830" />
            </Array>
          </mxGeometry>
        </mxCell>
        <mxCell id="iYESXNnwb6eKK7Hg1Qux-123" value="i++" style="rounded=0;whiteSpace=wrap;html=1;" vertex="1" parent="mvioNwK95yMqdUQ73LqQ-36">
          <mxGeometry x="464" y="2010" width="120" height="60" as="geometry" />
        </mxCell>
        <mxCell id="iYESXNnwb6eKK7Hg1Qux-128" style="edgeStyle=orthogonalEdgeStyle;rounded=0;orthogonalLoop=1;jettySize=auto;html=1;entryX=0.5;entryY=0;entryDx=0;entryDy=0;" edge="1" parent="mvioNwK95yMqdUQ73LqQ-36" source="iYESXNnwb6eKK7Hg1Qux-125" target="iYESXNnwb6eKK7Hg1Qux-108">
          <mxGeometry relative="1" as="geometry" />
        </mxCell>
        <mxCell id="iYESXNnwb6eKK7Hg1Qux-125" value="" style="ellipse;whiteSpace=wrap;html=1;aspect=fixed;" vertex="1" parent="mvioNwK95yMqdUQ73LqQ-36">
          <mxGeometry x="322" y="1820" width="20" height="20" as="geometry" />
        </mxCell>
        <mxCell id="iYESXNnwb6eKK7Hg1Qux-164" style="edgeStyle=orthogonalEdgeStyle;rounded=0;orthogonalLoop=1;jettySize=auto;html=1;entryX=0.5;entryY=0;entryDx=0;entryDy=0;" edge="1" parent="mvioNwK95yMqdUQ73LqQ-36" source="iYESXNnwb6eKK7Hg1Qux-131" target="iYESXNnwb6eKK7Hg1Qux-138">
          <mxGeometry relative="1" as="geometry" />
        </mxCell>
        <mxCell id="iYESXNnwb6eKK7Hg1Qux-131" value="DIsplay &quot;Matrix1 :&quot;" style="shape=parallelogram;perimeter=parallelogramPerimeter;whiteSpace=wrap;html=1;fixedSize=1;" vertex="1" parent="mvioNwK95yMqdUQ73LqQ-36">
          <mxGeometry x="257" y="2650" width="158" height="60" as="geometry" />
        </mxCell>
        <mxCell id="iYESXNnwb6eKK7Hg1Qux-133" value="Yes" style="text;html=1;align=center;verticalAlign=middle;resizable=0;points=[];autosize=1;strokeColor=none;fillColor=none;" vertex="1" parent="mvioNwK95yMqdUQ73LqQ-36">
          <mxGeometry x="287" y="2230" width="40" height="30" as="geometry" />
        </mxCell>
        <mxCell id="iYESXNnwb6eKK7Hg1Qux-134" value="Yes" style="text;html=1;align=center;verticalAlign=middle;resizable=0;points=[];autosize=1;strokeColor=none;fillColor=none;" vertex="1" parent="mvioNwK95yMqdUQ73LqQ-36">
          <mxGeometry x="282" y="1930" width="40" height="30" as="geometry" />
        </mxCell>
        <mxCell id="iYESXNnwb6eKK7Hg1Qux-135" value="No" style="text;html=1;align=center;verticalAlign=middle;resizable=0;points=[];autosize=1;strokeColor=none;fillColor=none;" vertex="1" parent="mvioNwK95yMqdUQ73LqQ-36">
          <mxGeometry x="255" y="1860" width="40" height="30" as="geometry" />
        </mxCell>
        <mxCell id="iYESXNnwb6eKK7Hg1Qux-136" value="No" style="text;html=1;align=center;verticalAlign=middle;resizable=0;points=[];autosize=1;strokeColor=none;fillColor=none;" vertex="1" parent="mvioNwK95yMqdUQ73LqQ-36">
          <mxGeometry x="366" y="2130" width="40" height="30" as="geometry" />
        </mxCell>
        <mxCell id="iYESXNnwb6eKK7Hg1Qux-137" style="edgeStyle=orthogonalEdgeStyle;rounded=0;orthogonalLoop=1;jettySize=auto;html=1;entryX=0.5;entryY=0;entryDx=0;entryDy=0;" edge="1" parent="mvioNwK95yMqdUQ73LqQ-36" source="iYESXNnwb6eKK7Hg1Qux-138" target="iYESXNnwb6eKK7Hg1Qux-158">
          <mxGeometry relative="1" as="geometry" />
        </mxCell>
        <mxCell id="iYESXNnwb6eKK7Hg1Qux-139" style="edgeStyle=orthogonalEdgeStyle;rounded=0;orthogonalLoop=1;jettySize=auto;html=1;entryX=0.5;entryY=0;entryDx=0;entryDy=0;" edge="1" parent="mvioNwK95yMqdUQ73LqQ-36" source="iYESXNnwb6eKK7Hg1Qux-141" target="iYESXNnwb6eKK7Hg1Qux-146">
          <mxGeometry relative="1" as="geometry" />
        </mxCell>
        <mxCell id="iYESXNnwb6eKK7Hg1Qux-140" style="edgeStyle=orthogonalEdgeStyle;rounded=0;orthogonalLoop=1;jettySize=auto;html=1;entryX=0.5;entryY=0;entryDx=0;entryDy=0;" edge="1" parent="mvioNwK95yMqdUQ73LqQ-36" source="iYESXNnwb6eKK7Hg1Qux-141" target="iYESXNnwb6eKK7Hg1Qux-159">
          <mxGeometry relative="1" as="geometry">
            <Array as="points">
              <mxPoint x="60" y="2990" />
              <mxPoint x="60" y="3690" />
            </Array>
          </mxGeometry>
        </mxCell>
        <mxCell id="iYESXNnwb6eKK7Hg1Qux-142" style="edgeStyle=orthogonalEdgeStyle;rounded=0;orthogonalLoop=1;jettySize=auto;html=1;" edge="1" parent="mvioNwK95yMqdUQ73LqQ-36" source="iYESXNnwb6eKK7Hg1Qux-144">
          <mxGeometry relative="1" as="geometry">
            <mxPoint x="332" y="3390" as="targetPoint" />
          </mxGeometry>
        </mxCell>
        <mxCell id="iYESXNnwb6eKK7Hg1Qux-143" style="edgeStyle=orthogonalEdgeStyle;rounded=0;orthogonalLoop=1;jettySize=auto;html=1;" edge="1" parent="mvioNwK95yMqdUQ73LqQ-36" source="iYESXNnwb6eKK7Hg1Qux-144" target="iYESXNnwb6eKK7Hg1Qux-156">
          <mxGeometry relative="1" as="geometry" />
        </mxCell>
        <mxCell id="iYESXNnwb6eKK7Hg1Qux-145" style="edgeStyle=orthogonalEdgeStyle;rounded=0;orthogonalLoop=1;jettySize=auto;html=1;entryX=0.5;entryY=0;entryDx=0;entryDy=0;" edge="1" parent="mvioNwK95yMqdUQ73LqQ-36" source="iYESXNnwb6eKK7Hg1Qux-146" target="iYESXNnwb6eKK7Hg1Qux-154">
          <mxGeometry relative="1" as="geometry" />
        </mxCell>
        <mxCell id="iYESXNnwb6eKK7Hg1Qux-151" style="edgeStyle=orthogonalEdgeStyle;rounded=0;orthogonalLoop=1;jettySize=auto;html=1;entryX=0;entryY=0.5;entryDx=0;entryDy=0;" edge="1" parent="mvioNwK95yMqdUQ73LqQ-36" source="iYESXNnwb6eKK7Hg1Qux-152" target="iYESXNnwb6eKK7Hg1Qux-154">
          <mxGeometry relative="1" as="geometry">
            <Array as="points">
              <mxPoint x="140" y="3190" />
            </Array>
          </mxGeometry>
        </mxCell>
        <mxCell id="iYESXNnwb6eKK7Hg1Qux-153" style="edgeStyle=orthogonalEdgeStyle;rounded=0;orthogonalLoop=1;jettySize=auto;html=1;entryX=0.5;entryY=0;entryDx=0;entryDy=0;" edge="1" parent="mvioNwK95yMqdUQ73LqQ-36" source="iYESXNnwb6eKK7Hg1Qux-154" target="iYESXNnwb6eKK7Hg1Qux-144">
          <mxGeometry relative="1" as="geometry" />
        </mxCell>
        <mxCell id="iYESXNnwb6eKK7Hg1Qux-155" style="edgeStyle=orthogonalEdgeStyle;rounded=0;orthogonalLoop=1;jettySize=auto;html=1;entryX=1;entryY=0.5;entryDx=0;entryDy=0;" edge="1" parent="mvioNwK95yMqdUQ73LqQ-36" source="iYESXNnwb6eKK7Hg1Qux-156" target="iYESXNnwb6eKK7Hg1Qux-158">
          <mxGeometry relative="1" as="geometry">
            <Array as="points">
              <mxPoint x="530" y="2910" />
            </Array>
          </mxGeometry>
        </mxCell>
        <mxCell id="iYESXNnwb6eKK7Hg1Qux-157" style="edgeStyle=orthogonalEdgeStyle;rounded=0;orthogonalLoop=1;jettySize=auto;html=1;entryX=0.5;entryY=0;entryDx=0;entryDy=0;" edge="1" parent="mvioNwK95yMqdUQ73LqQ-36" source="iYESXNnwb6eKK7Hg1Qux-158" target="iYESXNnwb6eKK7Hg1Qux-141">
          <mxGeometry relative="1" as="geometry" />
        </mxCell>
        <mxCell id="iYESXNnwb6eKK7Hg1Qux-138" value="i = 0" style="rounded=0;whiteSpace=wrap;html=1;" vertex="1" parent="mvioNwK95yMqdUQ73LqQ-36">
          <mxGeometry x="274" y="2800" width="120" height="60" as="geometry" />
        </mxCell>
        <mxCell id="iYESXNnwb6eKK7Hg1Qux-141" value="i &amp;lt; rows1 ?" style="rhombus;whiteSpace=wrap;html=1;" vertex="1" parent="mvioNwK95yMqdUQ73LqQ-36">
          <mxGeometry x="292" y="2950" width="80" height="80" as="geometry" />
        </mxCell>
        <mxCell id="iYESXNnwb6eKK7Hg1Qux-144" value="j &amp;lt; cols1 ?" style="rhombus;whiteSpace=wrap;html=1;" vertex="1" parent="mvioNwK95yMqdUQ73LqQ-36">
          <mxGeometry x="292" y="3230" width="80" height="80" as="geometry" />
        </mxCell>
        <mxCell id="iYESXNnwb6eKK7Hg1Qux-146" value="j = 0" style="rounded=0;whiteSpace=wrap;html=1;" vertex="1" parent="mvioNwK95yMqdUQ73LqQ-36">
          <mxGeometry x="274" y="3080" width="120" height="60" as="geometry" />
        </mxCell>
        <mxCell id="iYESXNnwb6eKK7Hg1Qux-165" style="edgeStyle=orthogonalEdgeStyle;rounded=0;orthogonalLoop=1;jettySize=auto;html=1;entryX=0.5;entryY=1;entryDx=0;entryDy=0;" edge="1" parent="mvioNwK95yMqdUQ73LqQ-36" source="iYESXNnwb6eKK7Hg1Qux-148" target="iYESXNnwb6eKK7Hg1Qux-152">
          <mxGeometry relative="1" as="geometry">
            <Array as="points">
              <mxPoint x="334" y="3490" />
              <mxPoint x="140" y="3490" />
            </Array>
          </mxGeometry>
        </mxCell>
        <mxCell id="iYESXNnwb6eKK7Hg1Qux-148" value="Display &quot;Matrix[i][j]" style="shape=parallelogram;perimeter=parallelogramPerimeter;whiteSpace=wrap;html=1;fixedSize=1;" vertex="1" parent="mvioNwK95yMqdUQ73LqQ-36">
          <mxGeometry x="235" y="3390" width="198" height="60" as="geometry" />
        </mxCell>
        <mxCell id="iYESXNnwb6eKK7Hg1Qux-152" value="j++" style="rounded=0;whiteSpace=wrap;html=1;" vertex="1" parent="mvioNwK95yMqdUQ73LqQ-36">
          <mxGeometry x="80" y="3370" width="120" height="60" as="geometry" />
        </mxCell>
        <mxCell id="iYESXNnwb6eKK7Hg1Qux-154" value="" style="ellipse;whiteSpace=wrap;html=1;aspect=fixed;" vertex="1" parent="mvioNwK95yMqdUQ73LqQ-36">
          <mxGeometry x="324" y="3180" width="20" height="20" as="geometry" />
        </mxCell>
        <mxCell id="iYESXNnwb6eKK7Hg1Qux-156" value="i++" style="rounded=0;whiteSpace=wrap;html=1;" vertex="1" parent="mvioNwK95yMqdUQ73LqQ-36">
          <mxGeometry x="464" y="3090" width="120" height="60" as="geometry" />
        </mxCell>
        <mxCell id="iYESXNnwb6eKK7Hg1Qux-158" value="" style="ellipse;whiteSpace=wrap;html=1;aspect=fixed;" vertex="1" parent="mvioNwK95yMqdUQ73LqQ-36">
          <mxGeometry x="322" y="2900" width="20" height="20" as="geometry" />
        </mxCell>
        <mxCell id="iYESXNnwb6eKK7Hg1Qux-193" style="edgeStyle=orthogonalEdgeStyle;rounded=0;orthogonalLoop=1;jettySize=auto;html=1;entryX=0.5;entryY=0;entryDx=0;entryDy=0;" edge="1" parent="mvioNwK95yMqdUQ73LqQ-36" source="iYESXNnwb6eKK7Hg1Qux-159" target="iYESXNnwb6eKK7Hg1Qux-177">
          <mxGeometry relative="1" as="geometry" />
        </mxCell>
        <mxCell id="iYESXNnwb6eKK7Hg1Qux-159" value="DIsplay &quot;Matrix2:&quot;" style="shape=parallelogram;perimeter=parallelogramPerimeter;whiteSpace=wrap;html=1;fixedSize=1;" vertex="1" parent="mvioNwK95yMqdUQ73LqQ-36">
          <mxGeometry x="257" y="3730" width="158" height="60" as="geometry" />
        </mxCell>
        <mxCell id="iYESXNnwb6eKK7Hg1Qux-160" value="Yes" style="text;html=1;align=center;verticalAlign=middle;resizable=0;points=[];autosize=1;strokeColor=none;fillColor=none;" vertex="1" parent="mvioNwK95yMqdUQ73LqQ-36">
          <mxGeometry x="287" y="3310" width="40" height="30" as="geometry" />
        </mxCell>
        <mxCell id="iYESXNnwb6eKK7Hg1Qux-161" value="Yes" style="text;html=1;align=center;verticalAlign=middle;resizable=0;points=[];autosize=1;strokeColor=none;fillColor=none;" vertex="1" parent="mvioNwK95yMqdUQ73LqQ-36">
          <mxGeometry x="282" y="3010" width="40" height="30" as="geometry" />
        </mxCell>
        <mxCell id="iYESXNnwb6eKK7Hg1Qux-162" value="No" style="text;html=1;align=center;verticalAlign=middle;resizable=0;points=[];autosize=1;strokeColor=none;fillColor=none;" vertex="1" parent="mvioNwK95yMqdUQ73LqQ-36">
          <mxGeometry x="255" y="2940" width="40" height="30" as="geometry" />
        </mxCell>
        <mxCell id="iYESXNnwb6eKK7Hg1Qux-163" value="No" style="text;html=1;align=center;verticalAlign=middle;resizable=0;points=[];autosize=1;strokeColor=none;fillColor=none;" vertex="1" parent="mvioNwK95yMqdUQ73LqQ-36">
          <mxGeometry x="366" y="3210" width="40" height="30" as="geometry" />
        </mxCell>
        <mxCell id="iYESXNnwb6eKK7Hg1Qux-167" style="edgeStyle=orthogonalEdgeStyle;rounded=0;orthogonalLoop=1;jettySize=auto;html=1;entryX=0.5;entryY=0;entryDx=0;entryDy=0;" edge="1" parent="mvioNwK95yMqdUQ73LqQ-36" source="iYESXNnwb6eKK7Hg1Qux-177" target="iYESXNnwb6eKK7Hg1Qux-186">
          <mxGeometry relative="1" as="geometry" />
        </mxCell>
        <mxCell id="iYESXNnwb6eKK7Hg1Qux-168" style="edgeStyle=orthogonalEdgeStyle;rounded=0;orthogonalLoop=1;jettySize=auto;html=1;entryX=0.5;entryY=0;entryDx=0;entryDy=0;" edge="1" parent="mvioNwK95yMqdUQ73LqQ-36" source="iYESXNnwb6eKK7Hg1Qux-178" target="iYESXNnwb6eKK7Hg1Qux-180">
          <mxGeometry relative="1" as="geometry" />
        </mxCell>
        <mxCell id="iYESXNnwb6eKK7Hg1Qux-169" style="edgeStyle=orthogonalEdgeStyle;rounded=0;orthogonalLoop=1;jettySize=auto;html=1;entryX=0.5;entryY=0;entryDx=0;entryDy=0;" edge="1" parent="mvioNwK95yMqdUQ73LqQ-36" source="iYESXNnwb6eKK7Hg1Qux-178">
          <mxGeometry relative="1" as="geometry">
            <Array as="points">
              <mxPoint x="58" y="4200" />
              <mxPoint x="58" y="4900" />
            </Array>
            <mxPoint x="334" y="4940" as="targetPoint" />
          </mxGeometry>
        </mxCell>
        <mxCell id="iYESXNnwb6eKK7Hg1Qux-170" style="edgeStyle=orthogonalEdgeStyle;rounded=0;orthogonalLoop=1;jettySize=auto;html=1;" edge="1" parent="mvioNwK95yMqdUQ73LqQ-36" source="iYESXNnwb6eKK7Hg1Qux-179">
          <mxGeometry relative="1" as="geometry">
            <mxPoint x="330" y="4600" as="targetPoint" />
          </mxGeometry>
        </mxCell>
        <mxCell id="iYESXNnwb6eKK7Hg1Qux-171" style="edgeStyle=orthogonalEdgeStyle;rounded=0;orthogonalLoop=1;jettySize=auto;html=1;" edge="1" parent="mvioNwK95yMqdUQ73LqQ-36" source="iYESXNnwb6eKK7Hg1Qux-179" target="iYESXNnwb6eKK7Hg1Qux-185">
          <mxGeometry relative="1" as="geometry" />
        </mxCell>
        <mxCell id="iYESXNnwb6eKK7Hg1Qux-172" style="edgeStyle=orthogonalEdgeStyle;rounded=0;orthogonalLoop=1;jettySize=auto;html=1;entryX=0.5;entryY=0;entryDx=0;entryDy=0;" edge="1" parent="mvioNwK95yMqdUQ73LqQ-36" source="iYESXNnwb6eKK7Hg1Qux-180" target="iYESXNnwb6eKK7Hg1Qux-184">
          <mxGeometry relative="1" as="geometry" />
        </mxCell>
        <mxCell id="iYESXNnwb6eKK7Hg1Qux-173" style="edgeStyle=orthogonalEdgeStyle;rounded=0;orthogonalLoop=1;jettySize=auto;html=1;entryX=0;entryY=0.5;entryDx=0;entryDy=0;" edge="1" parent="mvioNwK95yMqdUQ73LqQ-36" source="iYESXNnwb6eKK7Hg1Qux-183" target="iYESXNnwb6eKK7Hg1Qux-184">
          <mxGeometry relative="1" as="geometry">
            <Array as="points">
              <mxPoint x="138" y="4400" />
            </Array>
          </mxGeometry>
        </mxCell>
        <mxCell id="iYESXNnwb6eKK7Hg1Qux-174" style="edgeStyle=orthogonalEdgeStyle;rounded=0;orthogonalLoop=1;jettySize=auto;html=1;entryX=0.5;entryY=0;entryDx=0;entryDy=0;" edge="1" parent="mvioNwK95yMqdUQ73LqQ-36" source="iYESXNnwb6eKK7Hg1Qux-184" target="iYESXNnwb6eKK7Hg1Qux-179">
          <mxGeometry relative="1" as="geometry" />
        </mxCell>
        <mxCell id="iYESXNnwb6eKK7Hg1Qux-175" style="edgeStyle=orthogonalEdgeStyle;rounded=0;orthogonalLoop=1;jettySize=auto;html=1;entryX=1;entryY=0.5;entryDx=0;entryDy=0;" edge="1" parent="mvioNwK95yMqdUQ73LqQ-36" source="iYESXNnwb6eKK7Hg1Qux-185" target="iYESXNnwb6eKK7Hg1Qux-186">
          <mxGeometry relative="1" as="geometry">
            <Array as="points">
              <mxPoint x="528" y="4120" />
            </Array>
          </mxGeometry>
        </mxCell>
        <mxCell id="iYESXNnwb6eKK7Hg1Qux-176" style="edgeStyle=orthogonalEdgeStyle;rounded=0;orthogonalLoop=1;jettySize=auto;html=1;entryX=0.5;entryY=0;entryDx=0;entryDy=0;" edge="1" parent="mvioNwK95yMqdUQ73LqQ-36" source="iYESXNnwb6eKK7Hg1Qux-186" target="iYESXNnwb6eKK7Hg1Qux-178">
          <mxGeometry relative="1" as="geometry" />
        </mxCell>
        <mxCell id="iYESXNnwb6eKK7Hg1Qux-177" value="i = 0" style="rounded=0;whiteSpace=wrap;html=1;" vertex="1" parent="mvioNwK95yMqdUQ73LqQ-36">
          <mxGeometry x="272" y="4010" width="120" height="60" as="geometry" />
        </mxCell>
        <mxCell id="iYESXNnwb6eKK7Hg1Qux-178" value="i &amp;lt; rows2 ?" style="rhombus;whiteSpace=wrap;html=1;" vertex="1" parent="mvioNwK95yMqdUQ73LqQ-36">
          <mxGeometry x="290" y="4160" width="80" height="80" as="geometry" />
        </mxCell>
        <mxCell id="iYESXNnwb6eKK7Hg1Qux-179" value="j &amp;lt; cols2 ?" style="rhombus;whiteSpace=wrap;html=1;" vertex="1" parent="mvioNwK95yMqdUQ73LqQ-36">
          <mxGeometry x="290" y="4440" width="80" height="80" as="geometry" />
        </mxCell>
        <mxCell id="iYESXNnwb6eKK7Hg1Qux-180" value="j = 0" style="rounded=0;whiteSpace=wrap;html=1;" vertex="1" parent="mvioNwK95yMqdUQ73LqQ-36">
          <mxGeometry x="272" y="4290" width="120" height="60" as="geometry" />
        </mxCell>
        <mxCell id="iYESXNnwb6eKK7Hg1Qux-181" style="edgeStyle=orthogonalEdgeStyle;rounded=0;orthogonalLoop=1;jettySize=auto;html=1;entryX=0.5;entryY=1;entryDx=0;entryDy=0;" edge="1" parent="mvioNwK95yMqdUQ73LqQ-36" source="iYESXNnwb6eKK7Hg1Qux-182" target="iYESXNnwb6eKK7Hg1Qux-183">
          <mxGeometry relative="1" as="geometry">
            <Array as="points">
              <mxPoint x="332" y="4700" />
              <mxPoint x="138" y="4700" />
            </Array>
          </mxGeometry>
        </mxCell>
        <mxCell id="iYESXNnwb6eKK7Hg1Qux-182" value="Display &quot;Matrix[i][j]" style="shape=parallelogram;perimeter=parallelogramPerimeter;whiteSpace=wrap;html=1;fixedSize=1;" vertex="1" parent="mvioNwK95yMqdUQ73LqQ-36">
          <mxGeometry x="233" y="4600" width="198" height="60" as="geometry" />
        </mxCell>
        <mxCell id="iYESXNnwb6eKK7Hg1Qux-183" value="j++" style="rounded=0;whiteSpace=wrap;html=1;" vertex="1" parent="mvioNwK95yMqdUQ73LqQ-36">
          <mxGeometry x="78" y="4580" width="120" height="60" as="geometry" />
        </mxCell>
        <mxCell id="iYESXNnwb6eKK7Hg1Qux-184" value="" style="ellipse;whiteSpace=wrap;html=1;aspect=fixed;" vertex="1" parent="mvioNwK95yMqdUQ73LqQ-36">
          <mxGeometry x="322" y="4390" width="20" height="20" as="geometry" />
        </mxCell>
        <mxCell id="iYESXNnwb6eKK7Hg1Qux-185" value="i++" style="rounded=0;whiteSpace=wrap;html=1;" vertex="1" parent="mvioNwK95yMqdUQ73LqQ-36">
          <mxGeometry x="462" y="4300" width="120" height="60" as="geometry" />
        </mxCell>
        <mxCell id="iYESXNnwb6eKK7Hg1Qux-186" value="" style="ellipse;whiteSpace=wrap;html=1;aspect=fixed;" vertex="1" parent="mvioNwK95yMqdUQ73LqQ-36">
          <mxGeometry x="320" y="4110" width="20" height="20" as="geometry" />
        </mxCell>
        <mxCell id="iYESXNnwb6eKK7Hg1Qux-188" value="Yes" style="text;html=1;align=center;verticalAlign=middle;resizable=0;points=[];autosize=1;strokeColor=none;fillColor=none;" vertex="1" parent="mvioNwK95yMqdUQ73LqQ-36">
          <mxGeometry x="285" y="4520" width="40" height="30" as="geometry" />
        </mxCell>
        <mxCell id="iYESXNnwb6eKK7Hg1Qux-189" value="Yes" style="text;html=1;align=center;verticalAlign=middle;resizable=0;points=[];autosize=1;strokeColor=none;fillColor=none;" vertex="1" parent="mvioNwK95yMqdUQ73LqQ-36">
          <mxGeometry x="280" y="4220" width="40" height="30" as="geometry" />
        </mxCell>
        <mxCell id="iYESXNnwb6eKK7Hg1Qux-190" value="No" style="text;html=1;align=center;verticalAlign=middle;resizable=0;points=[];autosize=1;strokeColor=none;fillColor=none;" vertex="1" parent="mvioNwK95yMqdUQ73LqQ-36">
          <mxGeometry x="253" y="4150" width="40" height="30" as="geometry" />
        </mxCell>
        <mxCell id="iYESXNnwb6eKK7Hg1Qux-191" value="No" style="text;html=1;align=center;verticalAlign=middle;resizable=0;points=[];autosize=1;strokeColor=none;fillColor=none;" vertex="1" parent="mvioNwK95yMqdUQ73LqQ-36">
          <mxGeometry x="364" y="4420" width="40" height="30" as="geometry" />
        </mxCell>
        <mxCell id="iYESXNnwb6eKK7Hg1Qux-222" style="edgeStyle=orthogonalEdgeStyle;rounded=0;orthogonalLoop=1;jettySize=auto;html=1;" edge="1" parent="mvioNwK95yMqdUQ73LqQ-36" source="iYESXNnwb6eKK7Hg1Qux-194">
          <mxGeometry relative="1" as="geometry">
            <mxPoint x="334" y="5140" as="targetPoint" />
          </mxGeometry>
        </mxCell>
        <mxCell id="iYESXNnwb6eKK7Hg1Qux-194" value="rows3 = cols1&amp;nbsp;&lt;div&gt;cols3 = rows1&lt;/div&gt;" style="rounded=0;whiteSpace=wrap;html=1;" vertex="1" parent="mvioNwK95yMqdUQ73LqQ-36">
          <mxGeometry x="274" y="4940" width="120" height="60" as="geometry" />
        </mxCell>
        <mxCell id="iYESXNnwb6eKK7Hg1Qux-195" style="edgeStyle=orthogonalEdgeStyle;rounded=0;orthogonalLoop=1;jettySize=auto;html=1;entryX=0.5;entryY=0;entryDx=0;entryDy=0;" edge="1" parent="mvioNwK95yMqdUQ73LqQ-36" source="iYESXNnwb6eKK7Hg1Qux-205" target="iYESXNnwb6eKK7Hg1Qux-214">
          <mxGeometry relative="1" as="geometry" />
        </mxCell>
        <mxCell id="iYESXNnwb6eKK7Hg1Qux-196" style="edgeStyle=orthogonalEdgeStyle;rounded=0;orthogonalLoop=1;jettySize=auto;html=1;entryX=0.5;entryY=0;entryDx=0;entryDy=0;" edge="1" parent="mvioNwK95yMqdUQ73LqQ-36" source="iYESXNnwb6eKK7Hg1Qux-206" target="iYESXNnwb6eKK7Hg1Qux-208">
          <mxGeometry relative="1" as="geometry" />
        </mxCell>
        <mxCell id="iYESXNnwb6eKK7Hg1Qux-197" style="edgeStyle=orthogonalEdgeStyle;rounded=0;orthogonalLoop=1;jettySize=auto;html=1;entryX=0.5;entryY=0;entryDx=0;entryDy=0;" edge="1" parent="mvioNwK95yMqdUQ73LqQ-36" source="iYESXNnwb6eKK7Hg1Qux-206">
          <mxGeometry relative="1" as="geometry">
            <Array as="points">
              <mxPoint x="70" y="5340" />
              <mxPoint x="70" y="6040" />
            </Array>
            <mxPoint x="346" y="6080" as="targetPoint" />
          </mxGeometry>
        </mxCell>
        <mxCell id="iYESXNnwb6eKK7Hg1Qux-198" style="edgeStyle=orthogonalEdgeStyle;rounded=0;orthogonalLoop=1;jettySize=auto;html=1;" edge="1" parent="mvioNwK95yMqdUQ73LqQ-36" source="iYESXNnwb6eKK7Hg1Qux-207">
          <mxGeometry relative="1" as="geometry">
            <mxPoint x="342" y="5740" as="targetPoint" />
          </mxGeometry>
        </mxCell>
        <mxCell id="iYESXNnwb6eKK7Hg1Qux-199" style="edgeStyle=orthogonalEdgeStyle;rounded=0;orthogonalLoop=1;jettySize=auto;html=1;" edge="1" parent="mvioNwK95yMqdUQ73LqQ-36" source="iYESXNnwb6eKK7Hg1Qux-207" target="iYESXNnwb6eKK7Hg1Qux-213">
          <mxGeometry relative="1" as="geometry" />
        </mxCell>
        <mxCell id="iYESXNnwb6eKK7Hg1Qux-200" style="edgeStyle=orthogonalEdgeStyle;rounded=0;orthogonalLoop=1;jettySize=auto;html=1;entryX=0.5;entryY=0;entryDx=0;entryDy=0;" edge="1" parent="mvioNwK95yMqdUQ73LqQ-36" source="iYESXNnwb6eKK7Hg1Qux-208" target="iYESXNnwb6eKK7Hg1Qux-212">
          <mxGeometry relative="1" as="geometry" />
        </mxCell>
        <mxCell id="iYESXNnwb6eKK7Hg1Qux-201" style="edgeStyle=orthogonalEdgeStyle;rounded=0;orthogonalLoop=1;jettySize=auto;html=1;entryX=0;entryY=0.5;entryDx=0;entryDy=0;" edge="1" parent="mvioNwK95yMqdUQ73LqQ-36" source="iYESXNnwb6eKK7Hg1Qux-211" target="iYESXNnwb6eKK7Hg1Qux-212">
          <mxGeometry relative="1" as="geometry">
            <Array as="points">
              <mxPoint x="150" y="5540" />
            </Array>
          </mxGeometry>
        </mxCell>
        <mxCell id="iYESXNnwb6eKK7Hg1Qux-202" style="edgeStyle=orthogonalEdgeStyle;rounded=0;orthogonalLoop=1;jettySize=auto;html=1;entryX=0.5;entryY=0;entryDx=0;entryDy=0;" edge="1" parent="mvioNwK95yMqdUQ73LqQ-36" source="iYESXNnwb6eKK7Hg1Qux-212" target="iYESXNnwb6eKK7Hg1Qux-207">
          <mxGeometry relative="1" as="geometry" />
        </mxCell>
        <mxCell id="iYESXNnwb6eKK7Hg1Qux-203" style="edgeStyle=orthogonalEdgeStyle;rounded=0;orthogonalLoop=1;jettySize=auto;html=1;entryX=1;entryY=0.5;entryDx=0;entryDy=0;" edge="1" parent="mvioNwK95yMqdUQ73LqQ-36" source="iYESXNnwb6eKK7Hg1Qux-213" target="iYESXNnwb6eKK7Hg1Qux-214">
          <mxGeometry relative="1" as="geometry">
            <Array as="points">
              <mxPoint x="540" y="5260" />
            </Array>
          </mxGeometry>
        </mxCell>
        <mxCell id="iYESXNnwb6eKK7Hg1Qux-204" style="edgeStyle=orthogonalEdgeStyle;rounded=0;orthogonalLoop=1;jettySize=auto;html=1;entryX=0.5;entryY=0;entryDx=0;entryDy=0;" edge="1" parent="mvioNwK95yMqdUQ73LqQ-36" source="iYESXNnwb6eKK7Hg1Qux-214" target="iYESXNnwb6eKK7Hg1Qux-206">
          <mxGeometry relative="1" as="geometry" />
        </mxCell>
        <mxCell id="iYESXNnwb6eKK7Hg1Qux-205" value="i = 0" style="rounded=0;whiteSpace=wrap;html=1;" vertex="1" parent="mvioNwK95yMqdUQ73LqQ-36">
          <mxGeometry x="277" y="5141" width="120" height="60" as="geometry" />
        </mxCell>
        <mxCell id="iYESXNnwb6eKK7Hg1Qux-206" value="i &amp;lt; rows3 ?" style="rhombus;whiteSpace=wrap;html=1;" vertex="1" parent="mvioNwK95yMqdUQ73LqQ-36">
          <mxGeometry x="302" y="5300" width="80" height="80" as="geometry" />
        </mxCell>
        <mxCell id="iYESXNnwb6eKK7Hg1Qux-207" value="j &amp;lt; cols3 ?" style="rhombus;whiteSpace=wrap;html=1;" vertex="1" parent="mvioNwK95yMqdUQ73LqQ-36">
          <mxGeometry x="302" y="5580" width="80" height="80" as="geometry" />
        </mxCell>
        <mxCell id="iYESXNnwb6eKK7Hg1Qux-208" value="j = 0" style="rounded=0;whiteSpace=wrap;html=1;" vertex="1" parent="mvioNwK95yMqdUQ73LqQ-36">
          <mxGeometry x="284" y="5430" width="120" height="60" as="geometry" />
        </mxCell>
        <mxCell id="iYESXNnwb6eKK7Hg1Qux-209" style="edgeStyle=orthogonalEdgeStyle;rounded=0;orthogonalLoop=1;jettySize=auto;html=1;entryX=0.5;entryY=1;entryDx=0;entryDy=0;" edge="1" parent="mvioNwK95yMqdUQ73LqQ-36" target="iYESXNnwb6eKK7Hg1Qux-211">
          <mxGeometry relative="1" as="geometry">
            <Array as="points">
              <mxPoint x="344" y="5840" />
              <mxPoint x="150" y="5840" />
            </Array>
            <mxPoint x="344" y="5800" as="sourcePoint" />
          </mxGeometry>
        </mxCell>
        <mxCell id="iYESXNnwb6eKK7Hg1Qux-211" value="j++" style="rounded=0;whiteSpace=wrap;html=1;" vertex="1" parent="mvioNwK95yMqdUQ73LqQ-36">
          <mxGeometry x="90" y="5720" width="120" height="60" as="geometry" />
        </mxCell>
        <mxCell id="iYESXNnwb6eKK7Hg1Qux-212" value="" style="ellipse;whiteSpace=wrap;html=1;aspect=fixed;" vertex="1" parent="mvioNwK95yMqdUQ73LqQ-36">
          <mxGeometry x="334" y="5530" width="20" height="20" as="geometry" />
        </mxCell>
        <mxCell id="iYESXNnwb6eKK7Hg1Qux-213" value="i++" style="rounded=0;whiteSpace=wrap;html=1;" vertex="1" parent="mvioNwK95yMqdUQ73LqQ-36">
          <mxGeometry x="474" y="5440" width="120" height="60" as="geometry" />
        </mxCell>
        <mxCell id="iYESXNnwb6eKK7Hg1Qux-214" value="" style="ellipse;whiteSpace=wrap;html=1;aspect=fixed;" vertex="1" parent="mvioNwK95yMqdUQ73LqQ-36">
          <mxGeometry x="332" y="5250" width="20" height="20" as="geometry" />
        </mxCell>
        <mxCell id="iYESXNnwb6eKK7Hg1Qux-215" value="Yes" style="text;html=1;align=center;verticalAlign=middle;resizable=0;points=[];autosize=1;strokeColor=none;fillColor=none;" vertex="1" parent="mvioNwK95yMqdUQ73LqQ-36">
          <mxGeometry x="297" y="5660" width="40" height="30" as="geometry" />
        </mxCell>
        <mxCell id="iYESXNnwb6eKK7Hg1Qux-216" value="Yes" style="text;html=1;align=center;verticalAlign=middle;resizable=0;points=[];autosize=1;strokeColor=none;fillColor=none;" vertex="1" parent="mvioNwK95yMqdUQ73LqQ-36">
          <mxGeometry x="292" y="5360" width="40" height="30" as="geometry" />
        </mxCell>
        <mxCell id="iYESXNnwb6eKK7Hg1Qux-217" value="No" style="text;html=1;align=center;verticalAlign=middle;resizable=0;points=[];autosize=1;strokeColor=none;fillColor=none;" vertex="1" parent="mvioNwK95yMqdUQ73LqQ-36">
          <mxGeometry x="265" y="5290" width="40" height="30" as="geometry" />
        </mxCell>
        <mxCell id="iYESXNnwb6eKK7Hg1Qux-218" value="No" style="text;html=1;align=center;verticalAlign=middle;resizable=0;points=[];autosize=1;strokeColor=none;fillColor=none;" vertex="1" parent="mvioNwK95yMqdUQ73LqQ-36">
          <mxGeometry x="376" y="5560" width="40" height="30" as="geometry" />
        </mxCell>
        <mxCell id="iYESXNnwb6eKK7Hg1Qux-220" value="Matrix3[ i ][ j ] = Matrix1[ j ][ i ]" style="rounded=0;whiteSpace=wrap;html=1;" vertex="1" parent="mvioNwK95yMqdUQ73LqQ-36">
          <mxGeometry x="260" y="5740" width="173" height="60" as="geometry" />
        </mxCell>
        <mxCell id="iYESXNnwb6eKK7Hg1Qux-221" value="Display &quot;Transpose of Matrix1 is :&quot;" style="shape=parallelogram;perimeter=parallelogramPerimeter;whiteSpace=wrap;html=1;fixedSize=1;" vertex="1" parent="mvioNwK95yMqdUQ73LqQ-36">
          <mxGeometry x="246" y="6080" width="207" height="60" as="geometry" />
        </mxCell>
        <mxCell id="iYESXNnwb6eKK7Hg1Qux-250" value="Display Matrix3[ i ][ j ]" style="shape=parallelogram;perimeter=parallelogramPerimeter;whiteSpace=wrap;html=1;fixedSize=1;" vertex="1" parent="mvioNwK95yMqdUQ73LqQ-36">
          <mxGeometry x="255.5" y="6780" width="177" height="60" as="geometry" />
        </mxCell>
        <mxCell id="iYESXNnwb6eKK7Hg1Qux-252" style="edgeStyle=orthogonalEdgeStyle;rounded=0;orthogonalLoop=1;jettySize=auto;html=1;" edge="1" parent="mvioNwK95yMqdUQ73LqQ-36" source="iYESXNnwb6eKK7Hg1Qux-251">
          <mxGeometry relative="1" as="geometry">
            <mxPoint x="355" y="7350" as="targetPoint" />
          </mxGeometry>
        </mxCell>
        <mxCell id="iYESXNnwb6eKK7Hg1Qux-271" style="edgeStyle=orthogonalEdgeStyle;rounded=0;orthogonalLoop=1;jettySize=auto;html=1;" edge="1" parent="mvioNwK95yMqdUQ73LqQ-36" source="iYESXNnwb6eKK7Hg1Qux-251" target="iYESXNnwb6eKK7Hg1Qux-259">
          <mxGeometry relative="1" as="geometry" />
        </mxCell>
        <mxCell id="iYESXNnwb6eKK7Hg1Qux-251" value="cols1 != rows2 ?" style="rhombus;whiteSpace=wrap;html=1;" vertex="1" parent="mvioNwK95yMqdUQ73LqQ-36">
          <mxGeometry x="295" y="7170" width="120" height="120" as="geometry" />
        </mxCell>
        <mxCell id="iYESXNnwb6eKK7Hg1Qux-253" value="Yes" style="text;html=1;align=center;verticalAlign=middle;resizable=0;points=[];autosize=1;strokeColor=none;fillColor=none;" vertex="1" parent="mvioNwK95yMqdUQ73LqQ-36">
          <mxGeometry x="285" y="7290" width="40" height="30" as="geometry" />
        </mxCell>
        <mxCell id="iYESXNnwb6eKK7Hg1Qux-257" style="edgeStyle=orthogonalEdgeStyle;rounded=0;orthogonalLoop=1;jettySize=auto;html=1;entryX=0.5;entryY=0;entryDx=0;entryDy=0;" edge="1" parent="mvioNwK95yMqdUQ73LqQ-36" source="iYESXNnwb6eKK7Hg1Qux-254" target="iYESXNnwb6eKK7Hg1Qux-299">
          <mxGeometry relative="1" as="geometry">
            <mxPoint x="350" y="8290" as="targetPoint" />
          </mxGeometry>
        </mxCell>
        <mxCell id="iYESXNnwb6eKK7Hg1Qux-254" value="Display &quot;Matrix1 and Matrix2 connot multiply&quot;" style="shape=parallelogram;perimeter=parallelogramPerimeter;whiteSpace=wrap;html=1;fixedSize=1;" vertex="1" parent="mvioNwK95yMqdUQ73LqQ-36">
          <mxGeometry x="233" y="7350" width="233" height="60" as="geometry" />
        </mxCell>
        <mxCell id="iYESXNnwb6eKK7Hg1Qux-327" style="edgeStyle=orthogonalEdgeStyle;rounded=0;orthogonalLoop=1;jettySize=auto;html=1;" edge="1" parent="mvioNwK95yMqdUQ73LqQ-36" source="iYESXNnwb6eKK7Hg1Qux-256">
          <mxGeometry relative="1" as="geometry">
            <mxPoint x="354" y="8520" as="targetPoint" />
          </mxGeometry>
        </mxCell>
        <mxCell id="iYESXNnwb6eKK7Hg1Qux-256" value="Display &quot;Matrix1 x Mtrix2 is :" style="shape=parallelogram;perimeter=parallelogramPerimeter;whiteSpace=wrap;html=1;fixedSize=1;" vertex="1" parent="mvioNwK95yMqdUQ73LqQ-36">
          <mxGeometry x="246" y="8400" width="216" height="60" as="geometry" />
        </mxCell>
        <mxCell id="iYESXNnwb6eKK7Hg1Qux-297" style="edgeStyle=orthogonalEdgeStyle;rounded=0;orthogonalLoop=1;jettySize=auto;html=1;entryX=0.5;entryY=0;entryDx=0;entryDy=0;" edge="1" parent="mvioNwK95yMqdUQ73LqQ-36" source="iYESXNnwb6eKK7Hg1Qux-259" target="iYESXNnwb6eKK7Hg1Qux-265">
          <mxGeometry relative="1" as="geometry" />
        </mxCell>
        <mxCell id="iYESXNnwb6eKK7Hg1Qux-259" value="i = 0" style="rounded=0;whiteSpace=wrap;html=1;" vertex="1" parent="mvioNwK95yMqdUQ73LqQ-36">
          <mxGeometry x="690" y="7310" width="120" height="60" as="geometry" />
        </mxCell>
        <mxCell id="iYESXNnwb6eKK7Hg1Qux-261" style="edgeStyle=orthogonalEdgeStyle;rounded=0;orthogonalLoop=1;jettySize=auto;html=1;" edge="1" parent="mvioNwK95yMqdUQ73LqQ-36">
          <mxGeometry relative="1" as="geometry">
            <mxPoint x="750" y="7570" as="targetPoint" />
            <mxPoint x="750" y="7510" as="sourcePoint" />
          </mxGeometry>
        </mxCell>
        <mxCell id="iYESXNnwb6eKK7Hg1Qux-263" value="Matrix4[ i ][ j ] = 0" style="rounded=0;whiteSpace=wrap;html=1;" vertex="1" parent="mvioNwK95yMqdUQ73LqQ-36">
          <mxGeometry x="690" y="7800" width="120" height="60" as="geometry" />
        </mxCell>
        <mxCell id="iYESXNnwb6eKK7Hg1Qux-284" style="edgeStyle=orthogonalEdgeStyle;rounded=0;orthogonalLoop=1;jettySize=auto;html=1;entryX=0.5;entryY=0;entryDx=0;entryDy=0;" edge="1" parent="mvioNwK95yMqdUQ73LqQ-36" source="iYESXNnwb6eKK7Hg1Qux-264" target="iYESXNnwb6eKK7Hg1Qux-281">
          <mxGeometry relative="1" as="geometry" />
        </mxCell>
        <mxCell id="iYESXNnwb6eKK7Hg1Qux-264" value="j = 0" style="rounded=0;whiteSpace=wrap;html=1;" vertex="1" parent="mvioNwK95yMqdUQ73LqQ-36">
          <mxGeometry x="690" y="7570" width="120" height="60" as="geometry" />
        </mxCell>
        <mxCell id="iYESXNnwb6eKK7Hg1Qux-282" style="edgeStyle=orthogonalEdgeStyle;rounded=0;orthogonalLoop=1;jettySize=auto;html=1;entryX=0.5;entryY=0;entryDx=0;entryDy=0;" edge="1" parent="mvioNwK95yMqdUQ73LqQ-36" source="iYESXNnwb6eKK7Hg1Qux-266" target="iYESXNnwb6eKK7Hg1Qux-263">
          <mxGeometry relative="1" as="geometry" />
        </mxCell>
        <mxCell id="iYESXNnwb6eKK7Hg1Qux-266" value="j &amp;lt; cols4?" style="rhombus;whiteSpace=wrap;html=1;" vertex="1" parent="mvioNwK95yMqdUQ73LqQ-36">
          <mxGeometry x="710" y="7690" width="80" height="80" as="geometry" />
        </mxCell>
        <mxCell id="iYESXNnwb6eKK7Hg1Qux-276" style="edgeStyle=orthogonalEdgeStyle;rounded=0;orthogonalLoop=1;jettySize=auto;html=1;entryX=0.5;entryY=0;entryDx=0;entryDy=0;" edge="1" parent="mvioNwK95yMqdUQ73LqQ-36" source="iYESXNnwb6eKK7Hg1Qux-267" target="iYESXNnwb6eKK7Hg1Qux-275">
          <mxGeometry relative="1" as="geometry" />
        </mxCell>
        <mxCell id="iYESXNnwb6eKK7Hg1Qux-267" value="k = 0" style="rounded=0;whiteSpace=wrap;html=1;" vertex="1" parent="mvioNwK95yMqdUQ73LqQ-36">
          <mxGeometry x="700" y="7910" width="120" height="60" as="geometry" />
        </mxCell>
        <mxCell id="iYESXNnwb6eKK7Hg1Qux-279" style="edgeStyle=orthogonalEdgeStyle;rounded=0;orthogonalLoop=1;jettySize=auto;html=1;entryX=0.5;entryY=0;entryDx=0;entryDy=0;" edge="1" parent="mvioNwK95yMqdUQ73LqQ-36" source="iYESXNnwb6eKK7Hg1Qux-268" target="iYESXNnwb6eKK7Hg1Qux-269">
          <mxGeometry relative="1" as="geometry" />
        </mxCell>
        <mxCell id="iYESXNnwb6eKK7Hg1Qux-287" style="edgeStyle=orthogonalEdgeStyle;rounded=0;orthogonalLoop=1;jettySize=auto;html=1;entryX=1;entryY=0.5;entryDx=0;entryDy=0;" edge="1" parent="mvioNwK95yMqdUQ73LqQ-36" source="iYESXNnwb6eKK7Hg1Qux-268" target="iYESXNnwb6eKK7Hg1Qux-281">
          <mxGeometry relative="1" as="geometry">
            <Array as="points">
              <mxPoint x="880" y="8070" />
              <mxPoint x="880" y="7660" />
            </Array>
          </mxGeometry>
        </mxCell>
        <mxCell id="iYESXNnwb6eKK7Hg1Qux-268" value="k &amp;lt; cols4?" style="rhombus;whiteSpace=wrap;html=1;" vertex="1" parent="mvioNwK95yMqdUQ73LqQ-36">
          <mxGeometry x="720" y="8030" width="80" height="80" as="geometry" />
        </mxCell>
        <mxCell id="iYESXNnwb6eKK7Hg1Qux-273" style="edgeStyle=orthogonalEdgeStyle;rounded=0;orthogonalLoop=1;jettySize=auto;html=1;" edge="1" parent="mvioNwK95yMqdUQ73LqQ-36" source="iYESXNnwb6eKK7Hg1Qux-269" target="iYESXNnwb6eKK7Hg1Qux-272">
          <mxGeometry relative="1" as="geometry">
            <Array as="points">
              <mxPoint x="770" y="8250" />
              <mxPoint x="627" y="8250" />
            </Array>
          </mxGeometry>
        </mxCell>
        <mxCell id="iYESXNnwb6eKK7Hg1Qux-269" value="Matrix4[ i ][ j ] += Matrix1[ i ][ k ] * Matrix2[ k ][ j ]" style="rounded=0;whiteSpace=wrap;html=1;" vertex="1" parent="mvioNwK95yMqdUQ73LqQ-36">
          <mxGeometry x="670" y="8150" width="180" height="60" as="geometry" />
        </mxCell>
        <mxCell id="iYESXNnwb6eKK7Hg1Qux-298" style="edgeStyle=orthogonalEdgeStyle;rounded=0;orthogonalLoop=1;jettySize=auto;html=1;entryX=1;entryY=0.5;entryDx=0;entryDy=0;" edge="1" parent="mvioNwK95yMqdUQ73LqQ-36" source="iYESXNnwb6eKK7Hg1Qux-265" target="iYESXNnwb6eKK7Hg1Qux-299">
          <mxGeometry relative="1" as="geometry">
            <mxPoint x="410" y="8310" as="targetPoint" />
            <Array as="points">
              <mxPoint x="950" y="7470" />
              <mxPoint x="950" y="8310" />
            </Array>
          </mxGeometry>
        </mxCell>
        <mxCell id="iYESXNnwb6eKK7Hg1Qux-265" value="i &amp;lt; rows4 ?" style="rhombus;whiteSpace=wrap;html=1;" vertex="1" parent="mvioNwK95yMqdUQ73LqQ-36">
          <mxGeometry x="710" y="7430" width="80" height="80" as="geometry" />
        </mxCell>
        <mxCell id="iYESXNnwb6eKK7Hg1Qux-278" style="edgeStyle=orthogonalEdgeStyle;rounded=0;orthogonalLoop=1;jettySize=auto;html=1;entryX=0;entryY=0.5;entryDx=0;entryDy=0;" edge="1" parent="mvioNwK95yMqdUQ73LqQ-36" source="iYESXNnwb6eKK7Hg1Qux-272" target="iYESXNnwb6eKK7Hg1Qux-275">
          <mxGeometry relative="1" as="geometry">
            <Array as="points">
              <mxPoint x="627" y="8000" />
            </Array>
          </mxGeometry>
        </mxCell>
        <mxCell id="iYESXNnwb6eKK7Hg1Qux-272" value="k++" style="rounded=0;whiteSpace=wrap;html=1;" vertex="1" parent="mvioNwK95yMqdUQ73LqQ-36">
          <mxGeometry x="600" y="8100" width="54" height="27" as="geometry" />
        </mxCell>
        <mxCell id="iYESXNnwb6eKK7Hg1Qux-277" style="edgeStyle=orthogonalEdgeStyle;rounded=0;orthogonalLoop=1;jettySize=auto;html=1;entryX=0.5;entryY=0;entryDx=0;entryDy=0;" edge="1" parent="mvioNwK95yMqdUQ73LqQ-36" source="iYESXNnwb6eKK7Hg1Qux-275" target="iYESXNnwb6eKK7Hg1Qux-268">
          <mxGeometry relative="1" as="geometry" />
        </mxCell>
        <mxCell id="iYESXNnwb6eKK7Hg1Qux-275" value="" style="ellipse;whiteSpace=wrap;html=1;aspect=fixed;" vertex="1" parent="mvioNwK95yMqdUQ73LqQ-36">
          <mxGeometry x="750" y="7990" width="20" height="20" as="geometry" />
        </mxCell>
        <mxCell id="iYESXNnwb6eKK7Hg1Qux-283" style="edgeStyle=orthogonalEdgeStyle;rounded=0;orthogonalLoop=1;jettySize=auto;html=1;entryX=0.5;entryY=0;entryDx=0;entryDy=0;" edge="1" parent="mvioNwK95yMqdUQ73LqQ-36" source="iYESXNnwb6eKK7Hg1Qux-281" target="iYESXNnwb6eKK7Hg1Qux-266">
          <mxGeometry relative="1" as="geometry" />
        </mxCell>
        <mxCell id="iYESXNnwb6eKK7Hg1Qux-281" value="" style="ellipse;whiteSpace=wrap;html=1;aspect=fixed;" vertex="1" parent="mvioNwK95yMqdUQ73LqQ-36">
          <mxGeometry x="740" y="7650" width="20" height="20" as="geometry" />
        </mxCell>
        <mxCell id="iYESXNnwb6eKK7Hg1Qux-285" value="Yes" style="text;html=1;align=center;verticalAlign=middle;resizable=0;points=[];autosize=1;strokeColor=none;fillColor=none;" vertex="1" parent="mvioNwK95yMqdUQ73LqQ-36">
          <mxGeometry x="700" y="8097" width="40" height="30" as="geometry" />
        </mxCell>
        <mxCell id="iYESXNnwb6eKK7Hg1Qux-286" value="No" style="text;html=1;align=center;verticalAlign=middle;resizable=0;points=[];autosize=1;strokeColor=none;fillColor=none;" vertex="1" parent="mvioNwK95yMqdUQ73LqQ-36">
          <mxGeometry x="780" y="8020" width="40" height="30" as="geometry" />
        </mxCell>
        <mxCell id="iYESXNnwb6eKK7Hg1Qux-288" style="edgeStyle=orthogonalEdgeStyle;rounded=0;orthogonalLoop=1;jettySize=auto;html=1;entryX=0.454;entryY=-0.008;entryDx=0;entryDy=0;entryPerimeter=0;" edge="1" parent="mvioNwK95yMqdUQ73LqQ-36" source="iYESXNnwb6eKK7Hg1Qux-263" target="iYESXNnwb6eKK7Hg1Qux-267">
          <mxGeometry relative="1" as="geometry" />
        </mxCell>
        <mxCell id="iYESXNnwb6eKK7Hg1Qux-289" value="No" style="text;html=1;align=center;verticalAlign=middle;resizable=0;points=[];autosize=1;strokeColor=none;fillColor=none;" vertex="1" parent="mvioNwK95yMqdUQ73LqQ-36">
          <mxGeometry x="680" y="7680" width="40" height="30" as="geometry" />
        </mxCell>
        <mxCell id="iYESXNnwb6eKK7Hg1Qux-290" value="Yes" style="text;html=1;align=center;verticalAlign=middle;resizable=0;points=[];autosize=1;strokeColor=none;fillColor=none;" vertex="1" parent="mvioNwK95yMqdUQ73LqQ-36">
          <mxGeometry x="710" y="7760" width="40" height="30" as="geometry" />
        </mxCell>
        <mxCell id="iYESXNnwb6eKK7Hg1Qux-291" value="j++" style="rounded=0;whiteSpace=wrap;html=1;" vertex="1" parent="mvioNwK95yMqdUQ73LqQ-36">
          <mxGeometry x="840" y="7830" width="80" height="40" as="geometry" />
        </mxCell>
        <mxCell id="iYESXNnwb6eKK7Hg1Qux-296" style="edgeStyle=orthogonalEdgeStyle;rounded=0;orthogonalLoop=1;jettySize=auto;html=1;entryX=0;entryY=0.5;entryDx=0;entryDy=0;" edge="1" parent="mvioNwK95yMqdUQ73LqQ-36" source="iYESXNnwb6eKK7Hg1Qux-294" target="iYESXNnwb6eKK7Hg1Qux-265">
          <mxGeometry relative="1" as="geometry">
            <Array as="points">
              <mxPoint x="640" y="7470" />
            </Array>
          </mxGeometry>
        </mxCell>
        <mxCell id="iYESXNnwb6eKK7Hg1Qux-294" value="i++" style="rounded=0;whiteSpace=wrap;html=1;" vertex="1" parent="mvioNwK95yMqdUQ73LqQ-36">
          <mxGeometry x="610" y="7560" width="60" height="30" as="geometry" />
        </mxCell>
        <mxCell id="iYESXNnwb6eKK7Hg1Qux-293" style="edgeStyle=orthogonalEdgeStyle;rounded=0;orthogonalLoop=1;jettySize=auto;html=1;" edge="1" parent="mvioNwK95yMqdUQ73LqQ-36" source="iYESXNnwb6eKK7Hg1Qux-266" target="iYESXNnwb6eKK7Hg1Qux-294">
          <mxGeometry relative="1" as="geometry">
            <mxPoint x="610" y="7600" as="targetPoint" />
          </mxGeometry>
        </mxCell>
        <mxCell id="iYESXNnwb6eKK7Hg1Qux-302" style="edgeStyle=orthogonalEdgeStyle;rounded=0;orthogonalLoop=1;jettySize=auto;html=1;" edge="1" parent="mvioNwK95yMqdUQ73LqQ-36" source="iYESXNnwb6eKK7Hg1Qux-299">
          <mxGeometry relative="1" as="geometry">
            <mxPoint x="347" y="8400" as="targetPoint" />
          </mxGeometry>
        </mxCell>
        <mxCell id="iYESXNnwb6eKK7Hg1Qux-299" value="" style="ellipse;whiteSpace=wrap;html=1;aspect=fixed;" vertex="1" parent="mvioNwK95yMqdUQ73LqQ-36">
          <mxGeometry x="337" y="8300" width="20" height="20" as="geometry" />
        </mxCell>
        <mxCell id="iYESXNnwb6eKK7Hg1Qux-300" value="No" style="text;html=1;align=center;verticalAlign=middle;resizable=0;points=[];autosize=1;strokeColor=none;fillColor=none;" vertex="1" parent="mvioNwK95yMqdUQ73LqQ-36">
          <mxGeometry x="790" y="7430" width="40" height="30" as="geometry" />
        </mxCell>
        <mxCell id="iYESXNnwb6eKK7Hg1Qux-301" value="Yes" style="text;html=1;align=center;verticalAlign=middle;resizable=0;points=[];autosize=1;strokeColor=none;fillColor=none;" vertex="1" parent="mvioNwK95yMqdUQ73LqQ-36">
          <mxGeometry x="710" y="7520" width="40" height="30" as="geometry" />
        </mxCell>
        <mxCell id="iYESXNnwb6eKK7Hg1Qux-328" style="edgeStyle=orthogonalEdgeStyle;rounded=0;orthogonalLoop=1;jettySize=auto;html=1;entryX=0.5;entryY=1;entryDx=0;entryDy=0;" edge="1" parent="mvioNwK95yMqdUQ73LqQ-36" source="iYESXNnwb6eKK7Hg1Qux-304" target="iYESXNnwb6eKK7Hg1Qux-319">
          <mxGeometry relative="1" as="geometry">
            <Array as="points">
              <mxPoint x="360" y="9250" />
              <mxPoint x="166" y="9250" />
            </Array>
          </mxGeometry>
        </mxCell>
        <mxCell id="iYESXNnwb6eKK7Hg1Qux-304" value="Display Matrix4[ i ][ j ]" style="shape=parallelogram;perimeter=parallelogramPerimeter;whiteSpace=wrap;html=1;fixedSize=1;" vertex="1" parent="mvioNwK95yMqdUQ73LqQ-36">
          <mxGeometry x="271.5" y="9120" width="177" height="60" as="geometry" />
        </mxCell>
        <mxCell id="iYESXNnwb6eKK7Hg1Qux-305" style="edgeStyle=orthogonalEdgeStyle;rounded=0;orthogonalLoop=1;jettySize=auto;html=1;entryX=0.5;entryY=0;entryDx=0;entryDy=0;" edge="1" parent="mvioNwK95yMqdUQ73LqQ-36" source="iYESXNnwb6eKK7Hg1Qux-314" target="iYESXNnwb6eKK7Hg1Qux-322">
          <mxGeometry relative="1" as="geometry" />
        </mxCell>
        <mxCell id="iYESXNnwb6eKK7Hg1Qux-306" style="edgeStyle=orthogonalEdgeStyle;rounded=0;orthogonalLoop=1;jettySize=auto;html=1;entryX=0.5;entryY=0;entryDx=0;entryDy=0;" edge="1" parent="mvioNwK95yMqdUQ73LqQ-36" source="iYESXNnwb6eKK7Hg1Qux-315" target="iYESXNnwb6eKK7Hg1Qux-317">
          <mxGeometry relative="1" as="geometry" />
        </mxCell>
        <mxCell id="iYESXNnwb6eKK7Hg1Qux-307" style="edgeStyle=orthogonalEdgeStyle;rounded=0;orthogonalLoop=1;jettySize=auto;html=1;" edge="1" parent="mvioNwK95yMqdUQ73LqQ-36" source="iYESXNnwb6eKK7Hg1Qux-316">
          <mxGeometry relative="1" as="geometry">
            <mxPoint x="358" y="9119" as="targetPoint" />
          </mxGeometry>
        </mxCell>
        <mxCell id="iYESXNnwb6eKK7Hg1Qux-308" style="edgeStyle=orthogonalEdgeStyle;rounded=0;orthogonalLoop=1;jettySize=auto;html=1;" edge="1" parent="mvioNwK95yMqdUQ73LqQ-36" source="iYESXNnwb6eKK7Hg1Qux-316" target="iYESXNnwb6eKK7Hg1Qux-321">
          <mxGeometry relative="1" as="geometry" />
        </mxCell>
        <mxCell id="iYESXNnwb6eKK7Hg1Qux-309" style="edgeStyle=orthogonalEdgeStyle;rounded=0;orthogonalLoop=1;jettySize=auto;html=1;entryX=0.5;entryY=0;entryDx=0;entryDy=0;" edge="1" parent="mvioNwK95yMqdUQ73LqQ-36" source="iYESXNnwb6eKK7Hg1Qux-317" target="iYESXNnwb6eKK7Hg1Qux-320">
          <mxGeometry relative="1" as="geometry" />
        </mxCell>
        <mxCell id="iYESXNnwb6eKK7Hg1Qux-310" style="edgeStyle=orthogonalEdgeStyle;rounded=0;orthogonalLoop=1;jettySize=auto;html=1;entryX=0;entryY=0.5;entryDx=0;entryDy=0;" edge="1" parent="mvioNwK95yMqdUQ73LqQ-36" source="iYESXNnwb6eKK7Hg1Qux-319" target="iYESXNnwb6eKK7Hg1Qux-320">
          <mxGeometry relative="1" as="geometry">
            <Array as="points">
              <mxPoint x="166" y="8919" />
            </Array>
          </mxGeometry>
        </mxCell>
        <mxCell id="iYESXNnwb6eKK7Hg1Qux-311" style="edgeStyle=orthogonalEdgeStyle;rounded=0;orthogonalLoop=1;jettySize=auto;html=1;entryX=0.5;entryY=0;entryDx=0;entryDy=0;" edge="1" parent="mvioNwK95yMqdUQ73LqQ-36" source="iYESXNnwb6eKK7Hg1Qux-320" target="iYESXNnwb6eKK7Hg1Qux-316">
          <mxGeometry relative="1" as="geometry" />
        </mxCell>
        <mxCell id="iYESXNnwb6eKK7Hg1Qux-312" style="edgeStyle=orthogonalEdgeStyle;rounded=0;orthogonalLoop=1;jettySize=auto;html=1;entryX=1;entryY=0.5;entryDx=0;entryDy=0;" edge="1" parent="mvioNwK95yMqdUQ73LqQ-36" source="iYESXNnwb6eKK7Hg1Qux-321" target="iYESXNnwb6eKK7Hg1Qux-322">
          <mxGeometry relative="1" as="geometry">
            <Array as="points">
              <mxPoint x="556" y="8639" />
            </Array>
          </mxGeometry>
        </mxCell>
        <mxCell id="iYESXNnwb6eKK7Hg1Qux-313" style="edgeStyle=orthogonalEdgeStyle;rounded=0;orthogonalLoop=1;jettySize=auto;html=1;entryX=0.5;entryY=0;entryDx=0;entryDy=0;" edge="1" parent="mvioNwK95yMqdUQ73LqQ-36" source="iYESXNnwb6eKK7Hg1Qux-322" target="iYESXNnwb6eKK7Hg1Qux-315">
          <mxGeometry relative="1" as="geometry" />
        </mxCell>
        <mxCell id="iYESXNnwb6eKK7Hg1Qux-314" value="i = 0" style="rounded=0;whiteSpace=wrap;html=1;" vertex="1" parent="mvioNwK95yMqdUQ73LqQ-36">
          <mxGeometry x="293" y="8520" width="120" height="60" as="geometry" />
        </mxCell>
        <mxCell id="iYESXNnwb6eKK7Hg1Qux-329" style="edgeStyle=orthogonalEdgeStyle;rounded=0;orthogonalLoop=1;jettySize=auto;html=1;entryX=0.5;entryY=0;entryDx=0;entryDy=0;" edge="1" parent="mvioNwK95yMqdUQ73LqQ-36" source="iYESXNnwb6eKK7Hg1Qux-315" target="iYESXNnwb6eKK7Hg1Qux-330">
          <mxGeometry relative="1" as="geometry">
            <mxPoint x="80" y="9340" as="targetPoint" />
            <Array as="points">
              <mxPoint x="60" y="8719" />
              <mxPoint x="60" y="9430" />
            </Array>
          </mxGeometry>
        </mxCell>
        <mxCell id="iYESXNnwb6eKK7Hg1Qux-315" value="i &amp;lt; rows4 ?" style="rhombus;whiteSpace=wrap;html=1;" vertex="1" parent="mvioNwK95yMqdUQ73LqQ-36">
          <mxGeometry x="318" y="8679" width="80" height="80" as="geometry" />
        </mxCell>
        <mxCell id="iYESXNnwb6eKK7Hg1Qux-316" value="j &amp;lt; cols4 ?" style="rhombus;whiteSpace=wrap;html=1;" vertex="1" parent="mvioNwK95yMqdUQ73LqQ-36">
          <mxGeometry x="318" y="8959" width="80" height="80" as="geometry" />
        </mxCell>
        <mxCell id="iYESXNnwb6eKK7Hg1Qux-317" value="j = 0" style="rounded=0;whiteSpace=wrap;html=1;" vertex="1" parent="mvioNwK95yMqdUQ73LqQ-36">
          <mxGeometry x="300" y="8809" width="120" height="60" as="geometry" />
        </mxCell>
        <mxCell id="iYESXNnwb6eKK7Hg1Qux-319" value="j++" style="rounded=0;whiteSpace=wrap;html=1;" vertex="1" parent="mvioNwK95yMqdUQ73LqQ-36">
          <mxGeometry x="106" y="9099" width="120" height="60" as="geometry" />
        </mxCell>
        <mxCell id="iYESXNnwb6eKK7Hg1Qux-320" value="" style="ellipse;whiteSpace=wrap;html=1;aspect=fixed;" vertex="1" parent="mvioNwK95yMqdUQ73LqQ-36">
          <mxGeometry x="350" y="8909" width="20" height="20" as="geometry" />
        </mxCell>
        <mxCell id="iYESXNnwb6eKK7Hg1Qux-321" value="i++" style="rounded=0;whiteSpace=wrap;html=1;" vertex="1" parent="mvioNwK95yMqdUQ73LqQ-36">
          <mxGeometry x="490" y="8819" width="120" height="60" as="geometry" />
        </mxCell>
        <mxCell id="iYESXNnwb6eKK7Hg1Qux-322" value="" style="ellipse;whiteSpace=wrap;html=1;aspect=fixed;" vertex="1" parent="mvioNwK95yMqdUQ73LqQ-36">
          <mxGeometry x="348" y="8629" width="20" height="20" as="geometry" />
        </mxCell>
        <mxCell id="iYESXNnwb6eKK7Hg1Qux-323" value="Yes" style="text;html=1;align=center;verticalAlign=middle;resizable=0;points=[];autosize=1;strokeColor=none;fillColor=none;" vertex="1" parent="mvioNwK95yMqdUQ73LqQ-36">
          <mxGeometry x="313" y="9039" width="40" height="30" as="geometry" />
        </mxCell>
        <mxCell id="iYESXNnwb6eKK7Hg1Qux-324" value="Yes" style="text;html=1;align=center;verticalAlign=middle;resizable=0;points=[];autosize=1;strokeColor=none;fillColor=none;" vertex="1" parent="mvioNwK95yMqdUQ73LqQ-36">
          <mxGeometry x="308" y="8739" width="40" height="30" as="geometry" />
        </mxCell>
        <mxCell id="iYESXNnwb6eKK7Hg1Qux-325" value="No" style="text;html=1;align=center;verticalAlign=middle;resizable=0;points=[];autosize=1;strokeColor=none;fillColor=none;" vertex="1" parent="mvioNwK95yMqdUQ73LqQ-36">
          <mxGeometry x="281" y="8669" width="40" height="30" as="geometry" />
        </mxCell>
        <mxCell id="iYESXNnwb6eKK7Hg1Qux-326" value="No" style="text;html=1;align=center;verticalAlign=middle;resizable=0;points=[];autosize=1;strokeColor=none;fillColor=none;" vertex="1" parent="mvioNwK95yMqdUQ73LqQ-36">
          <mxGeometry x="392" y="8939" width="40" height="30" as="geometry" />
        </mxCell>
        <mxCell id="iYESXNnwb6eKK7Hg1Qux-330" value="END" style="ellipse;whiteSpace=wrap;html=1;" vertex="1" parent="mvioNwK95yMqdUQ73LqQ-36">
          <mxGeometry x="296" y="9510" width="120" height="40" as="geometry" />
        </mxCell>
        <mxCell id="iYESXNnwb6eKK7Hg1Qux-36" value="Yes" style="text;html=1;align=center;verticalAlign=middle;resizable=0;points=[];autosize=1;strokeColor=none;fillColor=none;" vertex="1" parent="WIyWlLk6GJQsqaUBKTNV-1">
          <mxGeometry x="-490" y="838" width="40" height="30" as="geometry" />
        </mxCell>
        <mxCell id="iYESXNnwb6eKK7Hg1Qux-223" style="edgeStyle=orthogonalEdgeStyle;rounded=0;orthogonalLoop=1;jettySize=auto;html=1;entryX=0.5;entryY=0;entryDx=0;entryDy=0;" edge="1" parent="WIyWlLk6GJQsqaUBKTNV-1" source="iYESXNnwb6eKK7Hg1Qux-233" target="iYESXNnwb6eKK7Hg1Qux-241">
          <mxGeometry relative="1" as="geometry" />
        </mxCell>
        <mxCell id="iYESXNnwb6eKK7Hg1Qux-224" style="edgeStyle=orthogonalEdgeStyle;rounded=0;orthogonalLoop=1;jettySize=auto;html=1;entryX=0.5;entryY=0;entryDx=0;entryDy=0;" edge="1" parent="WIyWlLk6GJQsqaUBKTNV-1" source="iYESXNnwb6eKK7Hg1Qux-234" target="iYESXNnwb6eKK7Hg1Qux-236">
          <mxGeometry relative="1" as="geometry" />
        </mxCell>
        <mxCell id="iYESXNnwb6eKK7Hg1Qux-225" style="edgeStyle=orthogonalEdgeStyle;rounded=0;orthogonalLoop=1;jettySize=auto;html=1;" edge="1" parent="WIyWlLk6GJQsqaUBKTNV-1" source="iYESXNnwb6eKK7Hg1Qux-234" target="iYESXNnwb6eKK7Hg1Qux-251">
          <mxGeometry relative="1" as="geometry">
            <Array as="points">
              <mxPoint x="-660" y="6489" />
              <mxPoint x="-660" y="7189" />
              <mxPoint x="-375" y="7189" />
            </Array>
            <mxPoint x="-384" y="7229" as="targetPoint" />
          </mxGeometry>
        </mxCell>
        <mxCell id="iYESXNnwb6eKK7Hg1Qux-226" style="edgeStyle=orthogonalEdgeStyle;rounded=0;orthogonalLoop=1;jettySize=auto;html=1;" edge="1" parent="WIyWlLk6GJQsqaUBKTNV-1" source="iYESXNnwb6eKK7Hg1Qux-235">
          <mxGeometry relative="1" as="geometry">
            <mxPoint x="-388" y="6889" as="targetPoint" />
          </mxGeometry>
        </mxCell>
        <mxCell id="iYESXNnwb6eKK7Hg1Qux-227" style="edgeStyle=orthogonalEdgeStyle;rounded=0;orthogonalLoop=1;jettySize=auto;html=1;" edge="1" parent="WIyWlLk6GJQsqaUBKTNV-1" source="iYESXNnwb6eKK7Hg1Qux-235" target="iYESXNnwb6eKK7Hg1Qux-240">
          <mxGeometry relative="1" as="geometry" />
        </mxCell>
        <mxCell id="iYESXNnwb6eKK7Hg1Qux-228" style="edgeStyle=orthogonalEdgeStyle;rounded=0;orthogonalLoop=1;jettySize=auto;html=1;entryX=0.5;entryY=0;entryDx=0;entryDy=0;" edge="1" parent="WIyWlLk6GJQsqaUBKTNV-1" source="iYESXNnwb6eKK7Hg1Qux-236" target="iYESXNnwb6eKK7Hg1Qux-239">
          <mxGeometry relative="1" as="geometry" />
        </mxCell>
        <mxCell id="iYESXNnwb6eKK7Hg1Qux-229" style="edgeStyle=orthogonalEdgeStyle;rounded=0;orthogonalLoop=1;jettySize=auto;html=1;entryX=0;entryY=0.5;entryDx=0;entryDy=0;" edge="1" parent="WIyWlLk6GJQsqaUBKTNV-1" source="iYESXNnwb6eKK7Hg1Qux-238" target="iYESXNnwb6eKK7Hg1Qux-239">
          <mxGeometry relative="1" as="geometry">
            <Array as="points">
              <mxPoint x="-580" y="6689" />
            </Array>
          </mxGeometry>
        </mxCell>
        <mxCell id="iYESXNnwb6eKK7Hg1Qux-230" style="edgeStyle=orthogonalEdgeStyle;rounded=0;orthogonalLoop=1;jettySize=auto;html=1;entryX=0.5;entryY=0;entryDx=0;entryDy=0;" edge="1" parent="WIyWlLk6GJQsqaUBKTNV-1" source="iYESXNnwb6eKK7Hg1Qux-239" target="iYESXNnwb6eKK7Hg1Qux-235">
          <mxGeometry relative="1" as="geometry" />
        </mxCell>
        <mxCell id="iYESXNnwb6eKK7Hg1Qux-231" style="edgeStyle=orthogonalEdgeStyle;rounded=0;orthogonalLoop=1;jettySize=auto;html=1;entryX=1;entryY=0.5;entryDx=0;entryDy=0;" edge="1" parent="WIyWlLk6GJQsqaUBKTNV-1" source="iYESXNnwb6eKK7Hg1Qux-240" target="iYESXNnwb6eKK7Hg1Qux-241">
          <mxGeometry relative="1" as="geometry">
            <Array as="points">
              <mxPoint x="-190" y="6409" />
            </Array>
          </mxGeometry>
        </mxCell>
        <mxCell id="iYESXNnwb6eKK7Hg1Qux-232" style="edgeStyle=orthogonalEdgeStyle;rounded=0;orthogonalLoop=1;jettySize=auto;html=1;entryX=0.5;entryY=0;entryDx=0;entryDy=0;" edge="1" parent="WIyWlLk6GJQsqaUBKTNV-1" source="iYESXNnwb6eKK7Hg1Qux-241" target="iYESXNnwb6eKK7Hg1Qux-234">
          <mxGeometry relative="1" as="geometry" />
        </mxCell>
        <mxCell id="iYESXNnwb6eKK7Hg1Qux-233" value="i = 0" style="rounded=0;whiteSpace=wrap;html=1;" vertex="1" parent="WIyWlLk6GJQsqaUBKTNV-1">
          <mxGeometry x="-453" y="6290" width="120" height="60" as="geometry" />
        </mxCell>
        <mxCell id="iYESXNnwb6eKK7Hg1Qux-234" value="i &amp;lt; rows3 ?" style="rhombus;whiteSpace=wrap;html=1;" vertex="1" parent="WIyWlLk6GJQsqaUBKTNV-1">
          <mxGeometry x="-428" y="6449" width="80" height="80" as="geometry" />
        </mxCell>
        <mxCell id="iYESXNnwb6eKK7Hg1Qux-235" value="j &amp;lt; cols3 ?" style="rhombus;whiteSpace=wrap;html=1;" vertex="1" parent="WIyWlLk6GJQsqaUBKTNV-1">
          <mxGeometry x="-428" y="6729" width="80" height="80" as="geometry" />
        </mxCell>
        <mxCell id="iYESXNnwb6eKK7Hg1Qux-236" value="j = 0" style="rounded=0;whiteSpace=wrap;html=1;" vertex="1" parent="WIyWlLk6GJQsqaUBKTNV-1">
          <mxGeometry x="-446" y="6579" width="120" height="60" as="geometry" />
        </mxCell>
        <mxCell id="iYESXNnwb6eKK7Hg1Qux-237" style="edgeStyle=orthogonalEdgeStyle;rounded=0;orthogonalLoop=1;jettySize=auto;html=1;entryX=0.5;entryY=1;entryDx=0;entryDy=0;" edge="1" parent="WIyWlLk6GJQsqaUBKTNV-1" target="iYESXNnwb6eKK7Hg1Qux-238">
          <mxGeometry relative="1" as="geometry">
            <Array as="points">
              <mxPoint x="-386" y="7050" />
              <mxPoint x="-580" y="7050" />
            </Array>
            <mxPoint x="-386" y="6949" as="sourcePoint" />
          </mxGeometry>
        </mxCell>
        <mxCell id="iYESXNnwb6eKK7Hg1Qux-238" value="j++" style="rounded=0;whiteSpace=wrap;html=1;" vertex="1" parent="WIyWlLk6GJQsqaUBKTNV-1">
          <mxGeometry x="-640" y="6869" width="120" height="60" as="geometry" />
        </mxCell>
        <mxCell id="iYESXNnwb6eKK7Hg1Qux-239" value="" style="ellipse;whiteSpace=wrap;html=1;aspect=fixed;" vertex="1" parent="WIyWlLk6GJQsqaUBKTNV-1">
          <mxGeometry x="-396" y="6679" width="20" height="20" as="geometry" />
        </mxCell>
        <mxCell id="iYESXNnwb6eKK7Hg1Qux-240" value="i++" style="rounded=0;whiteSpace=wrap;html=1;" vertex="1" parent="WIyWlLk6GJQsqaUBKTNV-1">
          <mxGeometry x="-256" y="6589" width="120" height="60" as="geometry" />
        </mxCell>
        <mxCell id="iYESXNnwb6eKK7Hg1Qux-241" value="" style="ellipse;whiteSpace=wrap;html=1;aspect=fixed;" vertex="1" parent="WIyWlLk6GJQsqaUBKTNV-1">
          <mxGeometry x="-398" y="6399" width="20" height="20" as="geometry" />
        </mxCell>
        <mxCell id="iYESXNnwb6eKK7Hg1Qux-242" value="Yes" style="text;html=1;align=center;verticalAlign=middle;resizable=0;points=[];autosize=1;strokeColor=none;fillColor=none;" vertex="1" parent="WIyWlLk6GJQsqaUBKTNV-1">
          <mxGeometry x="-433" y="6809" width="40" height="30" as="geometry" />
        </mxCell>
        <mxCell id="iYESXNnwb6eKK7Hg1Qux-243" value="Yes" style="text;html=1;align=center;verticalAlign=middle;resizable=0;points=[];autosize=1;strokeColor=none;fillColor=none;" vertex="1" parent="WIyWlLk6GJQsqaUBKTNV-1">
          <mxGeometry x="-438" y="6509" width="40" height="30" as="geometry" />
        </mxCell>
        <mxCell id="iYESXNnwb6eKK7Hg1Qux-244" value="No" style="text;html=1;align=center;verticalAlign=middle;resizable=0;points=[];autosize=1;strokeColor=none;fillColor=none;" vertex="1" parent="WIyWlLk6GJQsqaUBKTNV-1">
          <mxGeometry x="-465" y="6439" width="40" height="30" as="geometry" />
        </mxCell>
        <mxCell id="iYESXNnwb6eKK7Hg1Qux-245" value="No" style="text;html=1;align=center;verticalAlign=middle;resizable=0;points=[];autosize=1;strokeColor=none;fillColor=none;" vertex="1" parent="WIyWlLk6GJQsqaUBKTNV-1">
          <mxGeometry x="-354" y="6709" width="40" height="30" as="geometry" />
        </mxCell>
        <mxCell id="iYESXNnwb6eKK7Hg1Qux-249" style="edgeStyle=orthogonalEdgeStyle;rounded=0;orthogonalLoop=1;jettySize=auto;html=1;" edge="1" parent="WIyWlLk6GJQsqaUBKTNV-1" source="iYESXNnwb6eKK7Hg1Qux-221" target="iYESXNnwb6eKK7Hg1Qux-233">
          <mxGeometry relative="1" as="geometry" />
        </mxCell>
        <mxCell id="iYESXNnwb6eKK7Hg1Qux-255" value="No" style="text;html=1;align=center;verticalAlign=middle;resizable=0;points=[];autosize=1;strokeColor=none;fillColor=none;" vertex="1" parent="WIyWlLk6GJQsqaUBKTNV-1">
          <mxGeometry x="-320" y="7248" width="40" height="30" as="geometry" />
        </mxCell>
      </root>
    </mxGraphModel>
  </diagram>
</mxfile>
